<svg width="432" height="432" xmlns="http://www.w3.org/2000/svg">
 <style type="text/css">.st0{fill:#fc5e21;}
	.st1{fill:#fc5e21;}</style>

 <g>
  <title>background</title>
  <rect fill="none" id="canvas_background" height="402" width="582" y="-1" x="-1"/>
 </g>
 <g>
  <title>Layer 1</title>
  <ellipse ry="123.499878" rx="123.499878" id="svg_39" cy="222.750001" cx="214.999787" fill-opacity="null" stroke-opacity="null" stroke-width="1.5" stroke="null" fill="#fc5e21"/>
  <ellipse ry="38.499962" rx="38.499962" id="svg_47" cy="203.750014" cx="122.499877" fill-opacity="null" stroke-opacity="null" stroke-width="1.5" stroke="null" fill="#fc5e21"/>
  <ellipse ry="38.499962" rx="38.499962" id="svg_54" cy="282.249938" cx="141.999858" fill-opacity="null" stroke-opacity="null" stroke-width="1.5" stroke="null" fill="#fc5e21"/>
  <ellipse ry="38.499962" rx="38.499962" id="svg_53" cy="317.749904" cx="213.499789" fill-opacity="null" stroke-opacity="null" stroke-width="1.5" stroke="null" fill="#fc5e21"/>
  <ellipse ry="38.499962" rx="38.499962" id="svg_52" cy="283.749938" cx="288.499713" fill-opacity="null" stroke-opacity="null" stroke-width="1.5" stroke="null" fill="#fc5e21"/>
  <ellipse ry="38.499962" rx="38.499962" id="svg_51" cy="201.750022" cx="307.999694" fill-opacity="null" stroke-opacity="null" stroke-width="1.5" stroke="null" fill="#fc5e21"/>
  <ellipse ry="38.499962" rx="38.499962" id="svg_50" cy="139.250083" cx="257.999743" fill-opacity="null" stroke-opacity="null" stroke-width="1.5" stroke="null" fill="#fc5e21"/>
  <ellipse ry="38.499962" rx="38.499962" id="svg_49" cy="138.250084" cx="174.999827" fill-opacity="null" stroke-opacity="null" stroke-width="1.5" stroke="null" fill="#fc5e21"/>
  <path stroke="null" transform="rotate(128.05029296875 138.04248046875003,161.08323669433594) " id="svg_40" d="m138.042473,132.483114c13.897148,-65.120185 68.346629,0 0,83.725952c-68.346629,-83.725952 -13.897148,-148.846136 0,-83.725952z" stroke-width="1.5" fill="#c1f7dc"/>
  <path id="svg_38" d="m336.499667,126.750096" opacity="0.5" fill-opacity="null" stroke-opacity="null" stroke-width="1.5" stroke="null" fill="#fc5e21"/>
  <path stroke="null" transform="rotate(75.64186096191406 118.04248809814447,246.58316040039065) " id="svg_41" d="m118.042493,217.98303c13.897148,-65.120185 68.346629,0 0,83.725951c-68.346629,-83.725951 -13.897148,-148.846136 0,-83.725951z" stroke-width="1.5" fill="#c1f7dc"/>
  <path stroke="null" transform="rotate(24.73630714416504 172.04244995117153,315.58309936523443) " id="svg_42" d="m172.042437,286.982958c13.897148,-65.120185 68.346629,0 0,83.725951c-68.346629,-83.725951 -13.897148,-148.846136 0,-83.725951z" stroke-width="1.5" fill="#c1f7dc"/>
  <path stroke="null" transform="rotate(-27.33061981201172 259.54235839843744,316.5830993652344) " id="svg_43" d="m259.542349,287.982958c13.897148,-65.120185 68.346629,0 0,83.725951c-68.346629,-83.725951 -13.897148,-148.846136 0,-83.725951z" stroke-width="1.5" fill="#c1f7dc"/>
  <path stroke="null" transform="rotate(-76.35313415527344 315.04229736328125,246.58316040039062) " id="svg_44" d="m315.042295,217.983028c13.897148,-65.120185 68.346629,0 0,83.725951c-68.346629,-83.725951 -13.897148,-148.846136 0,-83.725951z" stroke-width="1.5" fill="#c1f7dc"/>
  <path stroke="null" transform="rotate(-128.42861938476562 295.04229736328125,160.58323669433594) " id="svg_45" d="m295.042315,131.983114c13.897148,-65.120185 68.346629,0 0,83.725951c-68.346629,-83.725951 -13.897148,-148.846136 0,-83.725951z" stroke-width="1.5" fill="#c1f7dc"/>
  <path stroke="null" transform="rotate(-179.21665954589844 215.31118774414062,123.61409759521484) " id="svg_46" d="m215.311185,95.013971c14.214377,-65.120185 69.906771,0 0,83.725951c-69.906771,-83.725951 -14.214377,-148.846136 0,-83.725951z" stroke-width="1.5" fill="#c1f7dc"/>
  <ellipse stroke="null" ry="81.249915" rx="81.249915" id="svg_56" cy="223.999988" cx="215.749762" stroke-width="1.5" fill="#c45ab3"/>
  <ellipse stroke="null" ry="68.749938" rx="68.749938" id="svg_57" cy="223.50002" cx="215.749799" stroke-width="1.5" fill="#fc5e21"/>
  <ellipse ry="46.999951" rx="46.999951" id="svg_55" cy="223.749988" cx="215.999766" stroke-width="1.5" fill="#70146a"/>
  <path fill="#70146a" id="svg_2" d="m216,174.3c-27.3,0 -49.5,22.2 -49.5,49.5s22.2,49.5 49.5,49.5s49.5,-22.2 49.5,-49.5s-22.2,-49.5 -49.5,-49.5zm0,95.7c-25.5,0 -46.2,-20.7 -46.2,-46.2s20.7,-46.2 46.2,-46.2c25.5,0 46.2,20.7 46.2,46.2s-20.7,46.2 -46.2,46.2z"/>
  <circle stroke-width="1.5" stroke="null" fill="#c1f7dc" id="svg_3" r="4.2" cy="166" cx="215.500001"/>
  <ellipse stroke-width="1.5" stroke="null" fill="#c1f7dc" id="svg_4" ry="4.2" rx="4.2" cy="143.726905" cx="222.546625" transform="matrix(0.2079,-0.9782,0.9782,0.2079,16.9774,355.53) "/>
  <ellipse stroke-width="1.5" stroke="null" fill="#c1f7dc" id="svg_5" ry="4.2" rx="4.2" cy="171" cx="192.5" transform="matrix(0.9135,-0.4067,0.4067,0.9135,-52.9151,93.0895) "/>
  <ellipse stroke-width="1.5" stroke="null" fill="#c1f7dc" id="svg_6" ry="4.2" rx="4.2" cy="177.1" cx="182.1" transform="matrix(0.809,-0.5878,0.5878,0.809,-69.2981,140.8223) "/>
  <ellipse stroke-width="1.5" stroke="null" fill="#c1f7dc" id="svg_7" ry="4.2" rx="4.2" cy="185.1" cx="173.1" transform="matrix(0.6691,-0.7431,0.7431,0.6691,-80.31,189.8755) "/>
  <ellipse stroke-width="1.5" stroke="null" fill="#c1f7dc" id="svg_8" ry="4.2" rx="4.2" cy="194.9" cx="166" transform="matrix(0.5,-0.866,0.866,0.5,-85.7918,241.2002) "/>
  <ellipse stroke-width="1.5" stroke="null" fill="#c1f7dc" id="svg_9" ry="4.2" rx="4.2" cy="205.9" cx="161.1" transform="matrix(0.309,-0.9511,0.9511,0.309,-84.5493,295.4779) "/>
  <ellipse stroke-width="1.5" stroke="null" fill="#c1f7dc" id="svg_10" ry="4.2" rx="4.2" cy="217.7" cx="158.6" transform="matrix(0.1045,-0.9945,0.9945,0.1045,-74.552,352.6739) "/>
  <ellipse stroke-width="1.5" stroke="null" fill="#c1f7dc" id="svg_11" ry="4.2" rx="4.2" cy="229.8" cx="158.6" transform="matrix(0.9945,-0.1045,0.1045,0.9945,-23.1514,17.8321) "/>
  <ellipse stroke-width="1.5" stroke="null" fill="#c1f7dc" id="svg_12" ry="4.2" rx="4.2" cy="241.6" cx="161.1" transform="matrix(0.9511,-0.309,0.309,0.9511,-66.7801,61.5996) "/>
  <ellipse stroke-width="1.5" stroke="null" fill="#c1f7dc" id="svg_13" ry="4.2" rx="4.2" cy="252.6" cx="166" transform="matrix(0.866,-0.5,0.5,0.866,-104.0874,116.843) "/>
  <ellipse stroke-width="1.5" stroke="null" fill="#c1f7dc" id="svg_14" ry="4.2" rx="4.2" cy="262.4" cx="173.1" transform="matrix(0.7432,-0.6691,0.6691,0.7432,-131.1329,183.2142) "/>
  <ellipse stroke-width="1.5" stroke="null" fill="#c1f7dc" id="svg_15" ry="4.2" rx="4.2" cy="270.5" cx="182.1" transform="matrix(0.5878,-0.809,0.809,0.5878,-143.7895,258.7852) "/>
  <ellipse stroke-width="1.5" stroke="null" fill="#c1f7dc" id="svg_16" ry="4.2" rx="4.2" cy="276.5" cx="192.5" transform="matrix(0.4067,-0.9135,0.9135,0.4067,-138.4159,339.9183) "/>
  <ellipse stroke-width="1.5" stroke="null" fill="#c1f7dc" id="svg_17" ry="4.2" rx="4.2" cy="280.3" cx="204" transform="matrix(0.2079,-0.9781,0.9781,0.2079,-112.5592,421.525) "/>
  <circle stroke-width="1.5" stroke="null" fill="#c1f7dc" id="svg_18" r="4.2" cy="281.5" cx="216"/>
  <ellipse stroke-width="1.5" stroke="null" fill="#c1f7dc" id="svg_19" ry="4.2" rx="4.2" cy="280.3" cx="228" transform="matrix(0.9782,-0.2079,0.2079,0.9782,-53.2847,53.5266) "/>
  <ellipse stroke-width="1.5" stroke="null" fill="#c1f7dc" id="svg_20" ry="4.2" rx="4.2" cy="276.5" cx="239.5" transform="matrix(0.9135,-0.4067,0.4067,0.9135,-91.7698,121.3152) "/>
  <ellipse stroke-width="1.5" stroke="null" fill="#c1f7dc" id="svg_21" ry="4.2" rx="4.2" cy="270.5" cx="249.9" transform="matrix(0.809,-0.5878,0.5878,0.809,-111.258,198.5767) "/>
  <ellipse stroke-width="1.5" stroke="null" fill="#c1f7dc" id="svg_22" ry="4.2" rx="4.2" cy="262.4" cx="258.9" transform="matrix(0.6691,-0.7431,0.7431,0.6691,-109.3452,279.2376) "/>
  <ellipse stroke-width="1.5" stroke="null" fill="#c1f7dc" id="svg_23" ry="4.2" rx="4.2" cy="252.6" cx="266" transform="matrix(0.5,-0.866,0.866,0.5,-85.7934,356.6977) "/>
  <ellipse stroke-width="1.5" stroke="null" fill="#c1f7dc" id="svg_24" ry="4.2" rx="4.2" cy="241.6" cx="270.9" transform="matrix(0.309,-0.9511,0.9511,0.309,-42.5843,424.627) "/>
  <ellipse stroke-width="1.5" stroke="null" fill="#c1f7dc" id="svg_25" ry="4.2" rx="4.2" cy="229.8" cx="273.4" transform="matrix(0.1045,-0.9945,0.9945,0.1045,16.3003,477.7223) "/>
  <ellipse stroke-width="1.5" stroke="null" fill="#c1f7dc" id="svg_26" ry="4.2" rx="4.2" cy="217.7" cx="273.4" transform="matrix(0.9945,-0.1045,0.1045,0.9945,-21.2643,29.7788) "/>
  <ellipse stroke-width="1.5" stroke="null" fill="#c1f7dc" id="svg_27" ry="4.2" rx="4.2" cy="205.9" cx="270.9" transform="matrix(0.9511,-0.309,0.309,0.9511,-50.3757,93.8024) "/>
  <ellipse stroke-width="1.5" stroke="null" fill="#c1f7dc" id="svg_28" ry="4.2" rx="4.2" cy="194.9" cx="266" transform="matrix(0.866,-0.5,0.5,0.866,-61.8085,159.1143) "/>
  <ellipse stroke-width="1.5" stroke="null" fill="#c1f7dc" id="svg_29" ry="4.2" rx="4.2" cy="185.1" cx="258.9" transform="matrix(0.7431,-0.6691,0.6691,0.7431,-57.3709,220.8009) "/>
  <ellipse stroke-width="1.5" stroke="null" fill="#c1f7dc" id="svg_30" ry="4.2" rx="4.2" cy="177.1" cx="249.9" transform="matrix(0.5878,-0.809,0.809,0.5878,-40.205,275.1935) "/>
  <ellipse stroke-width="1.5" stroke="null" fill="#c1f7dc" id="svg_31" ry="4.2" rx="4.2" cy="171" cx="239.5" transform="matrix(0.4067,-0.9135,0.9135,0.4067,-14.147,320.2424) "/>
  <ellipse stroke-width="1.5" stroke="null" fill="#c1f7dc" id="svg_32" ry="4.2" rx="4.2" cy="166.810948" cx="227.89606" transform="matrix(0.2079,-0.9782,0.9782,0.2079,16.9774,355.53) "/>
  <path fill="#70146a" id="svg_33" d="m371,259.1l-1.2,-1.6c-9.1,-12 -18.1,-21.3 -26.6,-28.4c6.2,-0.5 9.5,-2.2 10.4,-5.1c1.2,-3.9 -2.9,-8.2 -5.8,-10.7c6.9,-2.7 10.1,-5.5 10.1,-8.9c-0.1,-4.6 -6.6,-7.8 -10.4,-9.3c5.7,-6.5 7.5,-11 5.7,-14.3c-2.3,-4.1 -9.5,-3.7 -13.7,-3.2c1.9,-7.6 1.4,-12.1 -1.5,-14.1c-2.8,-1.9 -6.9,-0.4 -10.3,1.4c4.8,-10.4 9.2,-23 12.2,-38.5l0.4,-1.9l-2,-0.1c-15.1,-0.4 -27.9,0.9 -38.8,3.1c3.4,-5.1 4.2,-8.8 2.5,-11.3c-2.3,-3.4 -8.2,-2.9 -12,-2.1c2.2,-7 2,-11.3 -0.7,-13.4c-3.6,-2.8 -10.2,0.3 -13.7,2.4c-1.5,-8.5 -4,-12.7 -7.6,-13.3c-4.6,-0.7 -8.9,5.1 -11,8.7c-4.8,-6.3 -8.6,-8.7 -11.9,-7.6c-3.2,1 -4.7,5.1 -5.3,8.9c-5.1,-10.2 -12.3,-21.5 -22.4,-33.6l-1.3,-1.5l-1.3,1.5c-9.8,11.6 -16.8,22.5 -21.9,32.3c-1.9,-5.9 -4.3,-8.8 -7.3,-9c-4.1,-0.3 -7.4,4.6 -9.2,8.1c-4.1,-6.1 -7.6,-8.6 -10.9,-7.8c-4.5,1.1 -6.1,8.1 -6.7,12.2c-7.6,-4.1 -12.4,-4.8 -15.2,-2.3c-3.5,3.1 -1.5,10.1 0,14.1c-7.9,-0.2 -12.1,1.3 -13.4,4.6c-1.2,3.1 1.1,6.9 3.7,9.7c-11.2,-2.4 -24.5,-3.8 -40.3,-3.4l-2,0.1l0.4,1.9c2.9,14.8 7.1,27.1 11.6,37.2c-5.8,-2.2 -9.5,-2.2 -11.6,0.1c-2.8,3 -1,8.6 0.6,12.2c-7.4,-0.6 -11.5,0.6 -12.9,3.7c-1.9,4.2 2.5,9.9 5.4,12.9c-7.9,3.4 -11.5,6.7 -11.3,10.4c0.3,4.7 7,7.5 11,8.8c-5,6 -6.6,10.3 -4.8,13.3c1.5,2.6 5,3.3 8.5,3.3c0.5,0 0.9,0 1.4,0c-8.8,7.2 -18.3,16.8 -27.7,29.4l-1.2,1.6l1.7,0.9c13.4,6.9 25.6,11.3 36.3,14.1c-5.3,3.2 -7.6,6.1 -7.2,9.1c0.6,4 6.2,6.2 9.9,7.1c-5.1,5.4 -6.7,9.4 -5.2,12.4c2,4.1 9.3,4.2 13.4,3.8c-2.3,8.3 -2,13.2 1.1,15.3c3.8,2.7 10.2,-0.8 13.7,-3.1c1.6,7.7 4,11.5 7.4,12c0.2,0 0.5,0 0.7,0c3.1,0 5.9,-2.9 8,-5.8c0.2,11.4 1.7,24.7 5.7,40l0.5,1.9l1.8,-0.8c13.8,-6.1 24.8,-12.9 33.6,-19.6c-0.8,6.1 0,9.7 2.7,11.3c3.5,2.1 8.6,-1 11.7,-3.3c1.1,7.3 3.1,11.1 6.4,11.8c4.5,1 9,-4.7 11.3,-8.1c4.4,6 8,8.9 11.2,8.9c0.5,0 1,-0.1 1.5,-0.2c4.5,-1.3 5.8,-8.5 6.1,-12.6c7,3.6 11.5,4.1 14,1.7c2.4,-2.3 2,-6.7 0.9,-10.3c9,7 20.4,14.1 34.8,20.5l1.8,0.8l0.5,-1.9c3.8,-14.6 5.4,-27.4 5.6,-38.5c3.4,3.6 6.2,5.3 8.7,5.3c0.6,0 1.2,-0.1 1.8,-0.3c3.8,-1.5 4.6,-7.4 4.8,-11.2c6.4,3.7 10.6,4.5 13.2,2.3c3.6,-2.9 2,-10 0.7,-13.9c8.6,0.4 13.3,-1 14.7,-4.5c1.8,-4.3 -3,-9.8 -6.1,-12.7c7.2,-3.3 10.4,-6.4 10.1,-9.9c-0.3,-3.3 -4,-5.7 -7.5,-7.2c11.1,-2.7 23.7,-7.2 37.7,-14.4l2,-1.4zm-45.9,16.8c0,0 0.1,0 0.1,0c0.4,2.5 3.7,32.5 -34.2,42.5c-0.1,-3.3 -0.4,-6.4 -0.7,-9.3c15.1,-6.4 25.1,-18.1 27.6,-32c2.4,-0.4 4.7,-0.8 7.2,-1.2zm-37.9,16.3c-1.1,-4.1 -2.4,-7.5 -3.5,-10.2c1.9,-1.6 3.6,-3.3 5.1,-5c3.1,0.5 7.1,0.9 11.9,1.1c-3,5.5 -7.6,10.4 -13.5,14.1zm-43.9,49.4c0,0 0,0 0,0c-1.7,1.9 -22.9,23.3 -54.5,-0.1c2.5,-2.1 4.8,-4.3 6.9,-6.3c7.7,4.2 15.8,6.3 23.4,6.3c6.6,0 13,-1.6 18.8,-4.7c1.7,1.5 3.5,3.1 5.4,4.8zm-36.4,-19.5c2.5,-3.5 4.4,-6.6 5.8,-9.1c2.4,0.5 4.8,0.8 7.1,0.9c1.6,2.8 3.7,6.2 6.6,9.9c-6.2,1.2 -12.9,0.6 -19.5,-1.7zm-45.4,-33.7l10.7,20.5c-1.9,-0.4 -4,-0.3 -5.9,0.4c-2.7,1 -4.9,2.9 -6.2,5.5c-2,4.2 -1.1,9.1 2,12.3l-6.9,1.9c-1.7,-20.7 3.6,-35 6.3,-40.6zm-45.2,-11.1c2.9,16.1 12,28.5 25.1,34c-0.2,2.3 -0.4,4.7 -0.4,7.3c0,0 0,0.1 0,0.1c-2.5,-0.2 -32.5,-3.6 -33.8,-42.8c3.1,0.6 6.2,1.1 9.1,1.4zm27.9,17c-4.8,-4.2 -8.5,-9.7 -10.8,-16.3c4.3,-0.2 7.9,-0.6 10.7,-1.1c1.1,2.2 2.4,4.2 3.8,6.1c-1.2,2.9 -2.5,6.7 -3.7,11.3zm5.3,-14.9c-0.7,-1 -1.3,-2.1 -1.9,-3.2c1.3,-0.3 2.2,-0.6 2.9,-0.8c0.2,0.3 0.4,0.6 0.7,0.8c-0.5,0.7 -1,1.7 -1.7,3.2zm-54.4,-55.2c-0.1,0 -0.1,0 0,0c-1.5,-2.1 -17.5,-27.6 12.2,-53.1c1.5,2.9 3.1,5.6 4.6,8.1c-10.8,12.3 -14.8,27.2 -10.9,40.8c-1.9,1.3 -3.9,2.7 -5.9,4.2zm27,-31.2c2.8,3.2 5.4,5.8 7.6,7.7c-1,2.2 -1.8,4.5 -2.4,6.8c-3.1,0.9 -6.8,2.2 -11.2,4.2c0.3,-6.4 2.4,-12.7 6,-18.7zm10.2,9.9c1,0.8 1.8,1.4 2.4,1.8c-0.1,0.4 -0.2,0.7 -0.2,1.1c-0.8,0.1 -2,0.3 -3.5,0.7c0.4,-1.3 0.8,-2.5 1.3,-3.6zm8,-73.4c0,0 -0.1,-0.1 0,0c0.7,-2.5 10.7,-30.9 49.1,-23.5c-1.3,3 -2.5,5.9 -3.4,8.7c-16.4,-0.8 -30.5,5.4 -38.7,16.9c-2.2,-0.8 -4.6,-1.5 -7,-2.1zm102.2,-23.8c2.3,-0.9 30.8,-10.9 49,23.8c-3.2,0.8 -6.2,1.8 -8.9,2.7c-9.6,-13.3 -23.2,-20.4 -37.4,-19.7c-0.8,-2.2 -1.7,-4.4 -2.7,-6.8c0,0 0,0 0,0zm24.4,33.4c-3.8,2 -6.8,4 -9.2,5.7c-1.9,-1.5 -4,-2.8 -6.1,-3.9c-0.2,-3.2 -0.7,-7.2 -1.6,-11.8c6.1,1.7 11.9,5.1 16.9,10zm-15.1,5.7c1.1,0.6 2.1,1.3 3.2,2.1c-1,0.8 -1.8,1.5 -2.3,2c-0.3,-0.2 -0.7,-0.3 -1,-0.5c0.1,-0.9 0.1,-2.1 0.1,-3.6zm22.6,131.5c-0.9,1 -4.4,0.4 -7.9,-2.8c-0.2,-0.2 -0.4,-0.4 -0.6,-0.6l4.3,-4.8c0.2,0.2 0.4,0.3 0.6,0.5c1.7,1.5 3,3.3 3.6,4.9c0.3,1.3 0.4,2.4 0,2.8zm-17.9,31.6l-18.7,-3.6c10.1,-2.7 19.4,-7.3 27.6,-13.3l-8.9,16.9zm-40.5,-5.6c-1.3,0 -3.2,-3 -3.2,-7.8c0,-0.3 0,-0.5 0,-0.8l6.4,0c0,0.3 0,0.5 0,0.8c0,4.8 -1.9,7.8 -3.2,7.8zm0,-12c-36.7,0 -66.5,-29.8 -66.5,-66.5s29.8,-66.5 66.5,-66.5c36.7,0 66.5,29.8 66.5,66.5s-29.8,66.5 -66.5,66.5zm-49.4,0.7c8.2,6 17.5,10.6 27.6,13.3l-18.7,3.6l-8.9,-16.9zm-9,-14.7c-0.9,-1 0.1,-4.4 3.6,-7.6c0.2,-0.2 0.4,-0.4 0.6,-0.5l4.3,4.8c-0.2,0.2 -0.4,0.4 -0.6,0.6c-3.4,3.1 -7,3.7 -7.9,2.7zm-19.9,-55.8c1.9,1.2 4.5,2.1 7.2,2.4c0.4,0 0.8,0 1.2,0.1c0,0.3 0,0.5 0,0.8c0,0.3 0,0.5 0,0.8c-0.4,0 -0.8,0 -1.2,0.1c-2.8,0.3 -5.3,1.1 -7.2,2.4c-0.7,0.4 -1.2,0.9 -1.7,1.5c-0.1,-1.6 -0.2,-3.1 -0.2,-4.7c0,-1.6 0.1,-3.2 0.2,-4.7c0.5,0.4 1,0.8 1.7,1.3zm12.8,27.9c-0.3,0.1 -0.5,0.2 -0.8,0.3c-2.1,0.7 -4.3,0.9 -6,0.6c-1.3,-0.2 -2.2,-0.7 -2.4,-1.3c-0.4,-1.2 1.9,-4 6.4,-5.5c0.3,-0.1 0.5,-0.2 0.8,-0.2l2,6.1zm-3.8,-9c-3.8,1.2 -6.6,3.3 -7.9,5.6c-0.8,-3 -1.5,-6.1 -2,-9.2c1.7,1.3 4.4,2 7.4,2c0.7,0 1.4,0 2.1,-0.1c0.4,0 0.8,-0.1 1.2,-0.2c0.1,0.5 0.2,1 0.3,1.6c-0.3,0.1 -0.7,0.2 -1.1,0.3zm1.3,-54.9c0.3,-0.5 1.1,-0.8 2.3,-0.8c0.1,0 0.2,0 0.3,0c1.7,0.1 3.8,0.8 5.7,1.9c0.2,0.1 0.5,0.3 0.7,0.4l-3.2,5.5c-0.2,-0.1 -0.5,-0.2 -0.7,-0.4c-1.9,-1.1 -3.6,-2.6 -4.5,-4c-0.7,-1 -0.9,-2 -0.6,-2.6zm10,-1.8c-2.4,-1.4 -5,-2.2 -7.2,-2.3c-0.8,0 -1.5,0 -2.2,0.2c1.7,-2.6 3.5,-5.2 5.5,-7.6c0.3,2.6 2,5.7 5,8.3c0.3,0.3 0.7,0.5 1,0.8c-0.3,0.4 -0.6,0.9 -1,1.3c-0.4,-0.2 -0.7,-0.5 -1.1,-0.7zm14.3,-13.6c-0.2,-0.2 -0.3,-0.4 -0.5,-0.6c-2.8,-3.8 -3,-7.4 -2,-8.2c0.2,-0.1 0.5,-0.2 0.8,-0.2c1.5,0 4.1,1.5 6.4,4.6c0.2,0.2 0.3,0.4 0.5,0.7l-5.2,3.7zm-3.2,1.3c0.2,0.3 0.5,0.7 0.8,1c-0.4,0.4 -0.8,0.7 -1.2,1.1c-0.3,-0.3 -0.6,-0.6 -0.9,-0.9c-2.9,-2.6 -6.2,-4.1 -8.8,-4.1c2.2,-2.2 4.5,-4.3 7,-6.3c-0.3,2.6 0.8,6 3.1,9.2zm-26.8,14.2l0.7,-19.1l18.5,-4.9c-7.8,6.8 -14.3,14.9 -19.2,24zm2.6,2.3c0.2,0.7 0.5,1.3 1,2c1.2,1.9 3.2,3.7 5.6,5.1c0.4,0.2 0.7,0.4 1.1,0.6c-0.2,0.5 -0.5,1 -0.7,1.5c-0.4,-0.2 -0.8,-0.3 -1.2,-0.4c-2.6,-0.9 -5.3,-1.1 -7.6,-0.8c-0.8,0.1 -1.5,0.4 -2.2,0.6c1.2,-2.9 2.5,-5.8 4,-8.6zm-7,28.7c0.1,-1.1 2.6,-2.5 6.3,-2.5c0.6,0 1.1,0 1.7,0.1c0.3,0 0.5,0.1 0.8,0.1l-0.7,6.4c-0.3,0 -0.5,0 -0.8,-0.1c-2.2,-0.2 -4.3,-0.9 -5.7,-1.9c-1,-0.7 -1.7,-1.5 -1.6,-2.1zm-5.3,11.5c0.4,10.6 2.8,20.6 6.8,29.8l-14.4,-12.3l7.6,-17.5zm8.4,24.9c0.6,0.3 1.4,0.5 2.2,0.6c0.7,0.1 1.3,0.2 2.1,0.2c1.7,0 3.6,-0.3 5.5,-0.9c0.4,-0.1 0.8,-0.3 1.2,-0.4c0.2,0.5 0.4,1 0.7,1.5c-0.4,0.2 -0.7,0.4 -1.1,0.6c-2.4,1.4 -4.4,3.2 -5.6,5.1c-0.4,0.7 -0.7,1.3 -1,2c-1.6,-2.9 -2.9,-5.8 -4,-8.7zm54.8,49.3c-3.1,-0.8 -6.1,-1.8 -9,-2.9c0.6,-0.3 1.3,-0.7 1.9,-1.2c1.8,-1.4 3.4,-3.6 4.5,-6.1c0.2,-0.4 0.3,-0.8 0.5,-1.2c0.5,0.2 1,0.4 1.5,0.5c-0.1,0.4 -0.2,0.8 -0.3,1.2c-0.8,3.9 -0.4,7.5 0.9,9.7zm-11.5,-14.2c0.1,-0.2 0.2,-0.5 0.3,-0.7l5.8,2.6c-0.1,0.3 -0.2,0.5 -0.3,0.7c-0.9,2 -2.2,3.8 -3.5,4.9c-1,0.8 -2,1.2 -2.6,0.9c-1.1,-0.5 -1.6,-4.1 0.3,-8.4zm-3,-1.4c-1.6,3.6 -2,7.1 -1.2,9.6c-2.8,-1.4 -5.5,-3 -8.1,-4.7c0.7,-0.1 1.4,-0.4 2.1,-0.7c2,-1 4,-2.8 5.7,-5.1c0.2,-0.3 0.5,-0.7 0.7,-1c0.5,0.3 0.9,0.5 1.4,0.8c-0.3,0.4 -0.5,0.8 -0.6,1.1zm50,-144c-5,-0.9 -10.1,-1.4 -15.3,-1.4c-5.2,0 -10.3,0.5 -15.3,1.4l15.3,-11.4l15.3,11.4zm2.6,13.5c-0.1,0.3 -0.1,0.5 -0.2,0.8l-6.3,-1.3c0,-0.3 0.1,-0.5 0.1,-0.8c0.5,-2.2 1.4,-4.2 2.4,-5.5c0.8,-1 1.7,-1.5 2.3,-1.4c1.4,0.2 2.6,3.6 1.7,8.2zm-6.5,-8.9c-1.4,1.8 -2.5,4.2 -3.1,6.9c-0.1,0.4 -0.2,0.8 -0.2,1.2c-0.5,-0.1 -1.1,-0.1 -1.6,-0.2c0,-0.4 0,-0.8 0,-1.2c0,-4 -1.1,-7.3 -2.9,-9.3c3.2,0.1 6.3,0.5 9.4,1c-0.5,0.4 -1,0.9 -1.6,1.6zm-27.7,0.7c0.1,0 0.1,0 0.2,0c0.6,0 1.4,0.5 2.1,1.4c1.1,1.3 2,3.3 2.4,5.5c0.1,0.3 0.1,0.5 0.1,0.8l-6.3,1.3c-0.1,-0.3 -0.1,-0.5 -0.2,-0.8c-0.8,-4.6 0.4,-8 1.7,-8.2zm8,6.2c-0.6,-2.7 -1.7,-5.2 -3.1,-6.9c-0.5,-0.6 -1.1,-1.1 -1.6,-1.6c3.1,-0.5 6.2,-0.8 9.4,-1c-1.8,1.9 -2.9,5.3 -2.9,9.3c0,0.4 0,0.8 0,1.2c-0.5,0 -1.1,0.1 -1.6,0.2c-0.1,-0.4 -0.1,-0.8 -0.2,-1.2zm79.3,69.7c2.8,-0.3 5.3,-1.1 7.2,-2.4c0.7,-0.4 1.2,-0.9 1.7,-1.5c0.1,1.6 0.2,3.1 0.2,4.7c0,1.6 -0.1,3.2 -0.2,4.7c-1.8,-1.9 -5,-3.4 -8.9,-3.8c-0.4,0 -0.8,-0.1 -1.2,-0.1c0,-0.3 0,-0.5 0,-0.8c0,-0.3 0,-0.6 0,-0.8c0.4,0 0.8,0 1.2,0zm-1.8,-9.6c0.3,0 0.5,-0.1 0.8,-0.1c4.7,-0.5 7.9,1.1 8.1,2.4c0.1,0.6 -0.6,1.4 -1.6,2.2c-1.4,0.9 -3.5,1.6 -5.7,1.9c-0.3,0 -0.5,0 -0.8,0.1l-0.8,-6.5zm8.1,31.7c-0.3,-0.6 -0.8,-1.2 -1.4,-1.8c-1.6,-1.6 -3.9,-3 -6.6,-3.8c-0.4,-0.1 -0.8,-0.2 -1.2,-0.3c0.1,-0.5 0.2,-1 0.3,-1.6c0.4,0.1 0.8,0.1 1.2,0.2c0.7,0.1 1.4,0.1 2.1,0.1c3.1,0 5.7,-0.7 7.4,-2c-0.3,3.1 -1,6.2 -1.8,9.2zm-15.1,-53.4l-3.2,-5.6c0.2,-0.1 0.5,-0.3 0.7,-0.4c4.1,-2.4 7.7,-2.2 8.3,-1.1c0.7,1.1 -1,4.3 -5.1,6.7c-0.3,0.1 -0.5,0.2 -0.7,0.4zm-4.2,-8.9c-0.4,0.2 -0.7,0.4 -1.1,0.7c-0.3,-0.4 -0.6,-0.9 -1,-1.3c0.3,-0.3 0.7,-0.5 1,-0.8c2.1,-1.9 3.6,-4.1 4.4,-6.2c0.3,-0.8 0.4,-1.5 0.5,-2.2c2,2.4 3.8,5 5.5,7.6c-2.4,-0.5 -5.9,0.3 -9.3,2.2zm9.5,59.6c0.3,0.1 0.5,0.1 0.8,0.2c2.1,0.7 4,1.8 5.2,3c0.9,0.9 1.4,1.9 1.2,2.5c-0.2,0.6 -1.1,1.1 -2.4,1.3c-1.7,0.3 -3.9,0 -6,-0.6c-0.3,-0.1 -0.5,-0.2 -0.8,-0.3l2,-6.1zm5.3,-47.4c-2.2,-0.4 -4.9,-0.1 -7.6,0.8c-0.4,0.1 -0.8,0.3 -1.2,0.4c-0.2,-0.5 -0.4,-1 -0.7,-1.5c0.4,-0.2 0.7,-0.4 1.1,-0.6c3.4,-2 5.8,-4.6 6.6,-7.1c1.4,2.8 2.7,5.6 3.9,8.6c-0.5,-0.2 -1.3,-0.4 -2.1,-0.6zm-18.3,-34.3l18.5,4.9l0.7,19.1c-4.9,-9.1 -11.4,-17.2 -19.2,-24zm-8.3,-0.4c1.1,0.8 0.8,4.3 -2,8.2c-0.2,0.2 -0.3,0.4 -0.5,0.6l-5.2,-3.8c0.1,-0.2 0.3,-0.4 0.5,-0.7c2.8,-3.7 6.1,-5 7.2,-4.3zm0.7,10.2c2.3,-3.2 3.4,-6.5 3.1,-9.1c2.4,2 4.8,4 7,6.3c-2.6,0 -5.8,1.4 -8.8,4.1c-0.3,0.3 -0.6,0.6 -0.9,0.9c-0.4,-0.4 -0.8,-0.7 -1.2,-1.1c0.3,-0.4 0.5,-0.8 0.8,-1.1zm-25.8,121.2c-0.1,-0.4 -0.2,-0.8 -0.3,-1.2c0.5,-0.2 1,-0.3 1.5,-0.5c0.1,0.4 0.3,0.8 0.5,1.2c1.1,2.5 2.7,4.7 4.5,6.1c0.6,0.5 1.3,0.9 1.9,1.2c-2.9,1.1 -5.9,2.1 -9,2.9c1.3,-2.2 1.7,-5.8 0.9,-9.7zm10.8,3.9c-0.6,0.3 -1.6,-0.1 -2.6,-0.9c-1.3,-1.1 -2.6,-2.9 -3.5,-4.9c-0.1,-0.2 -0.2,-0.5 -0.3,-0.7l5.8,-2.6c0.1,0.2 0.2,0.5 0.3,0.7c2,4.3 1.5,7.9 0.3,8.4zm2.9,-9.8c-0.2,-0.4 -0.4,-0.8 -0.6,-1.1c0.5,-0.3 1,-0.5 1.4,-0.8c0.2,0.4 0.4,0.7 0.7,1.1c2.3,3.2 5.2,5.3 7.8,5.8c-2.6,1.7 -5.3,3.3 -8.1,4.7c0.7,-2.5 0.4,-6 -1.2,-9.7zm29.7,-32.2c-0.4,-0.2 -0.7,-0.4 -1.1,-0.6c0.2,-0.5 0.5,-1 0.7,-1.5c0.4,0.2 0.8,0.3 1.2,0.4c1.9,0.6 3.8,0.9 5.5,0.9c0.7,0 1.4,-0.1 2.1,-0.2c0.8,-0.1 1.5,-0.4 2.2,-0.6c-1.1,3 -2.4,5.8 -3.9,8.6c-0.9,-2.4 -3.2,-5 -6.7,-7zm18.9,-26.4l7.7,17.4l-14.5,12.4c4,-9.2 6.4,-19.2 6.8,-29.8zm-4.2,-15.3c-2.1,-1.5 -5.6,-2.3 -9.6,-1.9c-0.4,0 -0.8,0.1 -1.2,0.2c-0.1,-0.5 -0.2,-1 -0.3,-1.6c0.4,-0.1 0.8,-0.2 1.2,-0.3c2.6,-0.9 5,-2.2 6.6,-3.8c0.6,-0.6 1,-1.2 1.4,-1.8c0.8,2.9 1.5,6 1.9,9.2zm-2.9,-45.7c1.6,1.2 3.4,2 5.5,2.2c0.4,0 0.8,0.1 1.2,0.1c2.5,0 4.8,-0.8 6.8,-2.4c3.7,-2.9 4.9,-7.8 3.5,-12l7.1,1.3c-7.4,19.3 -18.4,29.9 -23.3,33.9l-0.8,-23.1zm25.2,-13.9l-9.6,-1.8l0.4,-9.8c3.6,-0.4 7.4,-0.6 11.4,-0.6c0.4,0 0.8,0 1.2,0c-0.9,4.4 -2.1,8.5 -3.4,12.2zm-12.8,-3.9c-3.8,-2.3 -8.8,-2.2 -12.5,0.8c-4,3.2 -5.1,8.7 -3.1,13.1l-22.4,-5.9c4.9,-3.8 17.7,-12.2 38.2,-15.1l-0.2,7.1zm-52.4,14.4c-0.2,0.3 -0.4,0.7 -0.7,1.1c-0.5,-0.3 -1,-0.6 -1.4,-0.8c0.2,-0.4 0.4,-0.7 0.6,-1.1c1.6,-3.6 2,-7.1 1.2,-9.6c2.8,1.4 5.5,3 8.1,4.7c-2.6,0.4 -5.5,2.5 -7.8,5.7zm-13.5,-6.2c-0.2,0.4 -0.3,0.8 -0.5,1.2c-0.5,-0.2 -1,-0.4 -1.5,-0.5c0.1,-0.4 0.2,-0.8 0.3,-1.2c0.8,-3.9 0.4,-7.4 -0.9,-9.7c3.1,0.8 6.1,1.8 9,2.9c-2.4,1 -4.8,3.7 -6.4,7.3zm-20.2,-28.4c4.8,-1.2 8.3,-5.4 8.3,-10.6c0,-4.7 -3,-8.7 -7.2,-10.2l5.4,-4.7c10.5,17.8 11.9,33 12,39.3l-18.5,-13.8zm-2.6,-21.9l-7.4,-6.4c2.1,-3.3 4.6,-6.8 7.4,-10.2c2.8,3.5 5.3,6.9 7.4,10.2l-7.4,6.4zm-9.1,-3.6l5.4,4.7c-4.2,1.5 -7.2,5.5 -7.2,10.2c0,5.1 3.6,9.4 8.3,10.6l-18.6,13.8c0.1,-6.2 1.5,-21.4 12.1,-39.3zm-11.1,43.6c-1.3,2.3 -1.7,5.8 -0.9,9.7c0.1,0.4 0.2,0.8 0.3,1.2c-0.5,0.2 -1,0.3 -1.5,0.5c-0.1,-0.4 -0.3,-0.8 -0.5,-1.2c-1.6,-3.6 -4,-6.2 -6.4,-7.3c2.9,-1.1 5.9,-2.1 9,-2.9zm-14.3,-15c-0.8,4.2 -1.1,7.8 -1.3,10.7c-2.4,0.6 -4.7,1.4 -6.8,2.3l0,0c-2.6,-1.8 -6,-3.9 -10.3,-6.1c5.2,-3.7 11.5,-6.1 18.4,-6.9zm-1.3,14.1c0,1.3 0.1,2.3 0.1,3c-0.3,0.2 -0.7,0.3 -1,0.5c-0.6,-0.6 -1.5,-1.3 -2.7,-2.3c1.1,-0.4 2.3,-0.8 3.6,-1.2zm-0.1,6.9c-0.8,2.5 -0.4,6 1.2,9.6c0.2,0.4 0.4,0.8 0.6,1.1c-0.5,0.3 -0.9,0.5 -1.4,0.8c-0.2,-0.4 -0.5,-0.7 -0.7,-1c-2.3,-3.2 -5.2,-5.3 -7.7,-5.8c2.5,-1.8 5.2,-3.3 8,-4.7zm-37.3,10c2.1,-4.4 0.9,-9.9 -3.1,-13.1l0,0c-3.7,-2.9 -8.7,-3.1 -12.5,-0.8l-0.3,-7.2c20.5,2.9 33.3,11.3 38.2,15.1l-22.3,6zm-19.2,-21.5l0.4,9.8l-9.6,1.8c-1.3,-3.7 -2.4,-7.8 -3.4,-12.1c4.5,-0.2 8.7,0.1 12.6,0.5zm-0.9,13.4c-0.5,1.5 -0.7,3.1 -0.5,4.7c0.3,2.9 1.8,5.5 4,7.3c1.9,1.6 4.3,2.4 6.8,2.4c0.4,0 0.8,0 1.2,-0.1c2,-0.2 3.9,-1 5.5,-2.2l-0.8,23.1c-4.8,-4 -15.9,-14.5 -23.3,-33.9l7.1,-1.3zm16,48.4c0.3,0.6 0.8,1.2 1.4,1.8c1.6,1.6 3.9,3 6.6,3.8c0.4,0.1 0.8,0.2 1.2,0.3c-0.1,0.5 -0.2,1 -0.3,1.6c-0.4,-0.1 -0.8,-0.1 -1.2,-0.2c-4,-0.4 -7.4,0.3 -9.6,1.9c0.4,-3.1 1.1,-6.2 1.9,-9.2zm-16.5,40.1c-2.2,-4.4 -7.2,-6.9 -12.2,-5.8l0,0c-4.6,1 -7.8,4.9 -8.4,9.3l-5.8,-4.2c15,-14.2 29.6,-19 35.7,-20.4l-9.3,21.1zm-28.7,1.6l7.9,5.8l-4.6,8.6c-3.7,-1.3 -7.6,-2.9 -11.6,-4.9c2.7,-3.6 5.5,-6.7 8.3,-9.5zm9.8,9.1c0.9,1.3 2,2.5 3.3,3.3c1.8,1.1 3.7,1.7 5.8,1.7c0.8,0 1.6,-0.1 2.4,-0.3c2.8,-0.6 5.2,-2.4 6.8,-4.8c1.1,-1.7 1.6,-3.7 1.7,-5.7l17.6,15c-6.1,1.3 -21.2,3.4 -41,-2.9l3.4,-6.3zm47,13.8c2.3,0 5,-0.8 7.7,-2.3c0.4,-0.2 0.7,-0.4 1.1,-0.7c0.3,0.4 0.6,0.9 0.9,1.3c-0.3,0.3 -0.7,0.5 -1,0.8c-2.9,2.7 -4.7,5.7 -5,8.3c-2,-2.4 -3.8,-5 -5.5,-7.6c0.6,0.2 1.2,0.2 1.8,0.2zm17.5,8.9c0.3,-0.3 0.6,-0.6 0.9,-0.9c0.4,0.4 0.8,0.7 1.2,1.1c-0.3,0.3 -0.5,0.7 -0.8,1c-2.3,3.2 -3.4,6.5 -3.1,9.1c-2.4,-2 -4.8,-4 -7,-6.3c2.6,0 5.9,-1.4 8.8,-4zm-2.8,53.7l3.9,9c-3.4,2.1 -7,4.1 -11.1,6c-1,-4.3 -1.8,-8.5 -2.2,-12.4l9.4,-2.6zm6.7,7.2l-2.8,-6.6c0.4,0 0.7,0.1 1.1,0.1c4.1,0 8,-2.3 9.8,-6.2c1.3,-2.6 1.4,-5.6 0.5,-8.3c-0.7,-1.9 -1.8,-3.6 -3.4,-4.8l22.7,-4.4c-2.9,5.6 -10.7,18.7 -27.9,30.2zm31.2,-34.1c0.6,-0.4 1.1,-0.9 1.6,-1.6c1.4,-1.8 2.5,-4.2 3.1,-6.9c0.1,-0.4 0.2,-0.8 0.2,-1.2c0.5,0.1 1.1,0.1 1.6,0.2c0,0.4 0,0.8 0,1.2c0,4 1.1,7.3 2.9,9.3c-3.1,-0.1 -6.3,-0.5 -9.4,-1zm15.1,7.7c-1.3,-0.1 -2.5,-0.3 -3.8,-0.5c0.6,-1.2 0.9,-2.1 1.2,-2.8c0.2,0 0.4,0 0.6,0c0.2,0 0.4,0 0.6,0c0.3,0.8 0.7,1.9 1.4,3.3zm4.5,-17.2c0.5,0 1.1,-0.1 1.6,-0.2c0.1,0.4 0.1,0.8 0.2,1.2c0.8,3.9 2.6,7 4.7,8.5c-3.1,0.5 -6.2,0.8 -9.4,1c1.8,-1.9 2.9,-5.3 2.9,-9.3c0,-0.4 0,-0.8 0,-1.2zm32.7,17.7c-3.8,3.1 -5.1,8.5 -2.9,13.1c1.3,2.6 3.5,4.6 6.2,5.5c1.2,0.4 2.4,0.6 3.6,0.6c0.4,0 0.7,0 1.1,-0.1l-2.8,6.6c-17.2,-11.5 -25.1,-24.6 -27.8,-30.2l22.6,4.5zm11.8,18.7l9.4,2.6c-0.5,3.9 -1.2,8.1 -2.2,12.4c-4,-1.9 -7.7,-3.9 -11.1,-6l3.9,-9zm9.8,-0.7l-6.9,-1.9c1.1,-1.1 2,-2.5 2.5,-4c1,-2.7 0.8,-5.7 -0.5,-8.3c-1.3,-2.6 -3.5,-4.6 -6.2,-5.5c-1.9,-0.7 -3.9,-0.8 -5.9,-0.4l10.7,-20.5c2.7,5.6 8,19.9 6.3,40.6zm-10.8,-42.7c0.3,-2.6 -0.8,-5.9 -3.1,-9.1c-0.2,-0.3 -0.5,-0.7 -0.8,-1c0.4,-0.4 0.8,-0.7 1.2,-1.1c0.3,0.3 0.6,0.6 0.9,0.9c2.9,2.6 6.2,4.1 8.8,4.1c-2.2,2.2 -4.5,4.3 -7,6.2zm16.3,-7.4c-0.6,-1.2 -1.1,-2.1 -1.4,-2.7c0.2,-0.3 0.4,-0.6 0.7,-0.8c0.8,0.2 2,0.6 3.5,0.9c-0.9,0.9 -1.8,1.8 -2.8,2.6zm-4.4,-4.3c-0.1,-0.7 -0.2,-1.4 -0.5,-2.2c-0.8,-2.1 -2.4,-4.3 -4.4,-6.2c-0.3,-0.3 -0.6,-0.5 -1,-0.8c0.3,-0.4 0.6,-0.9 0.9,-1.3c0.4,0.2 0.7,0.5 1.1,0.7c2.7,1.6 5.4,2.3 7.7,2.3c0.6,0 1.2,-0.1 1.7,-0.2c-1.7,2.7 -3.5,5.3 -5.5,7.7zm30.8,-27.1c0,2 0.6,3.9 1.7,5.7c1.5,2.5 4,4.2 6.8,4.8c0.8,0.2 1.6,0.3 2.4,0.3c2,0 4,-0.6 5.8,-1.7c1.4,-0.9 2.5,-2 3.3,-3.3l3.4,6.3c-19.7,6.3 -34.9,4.3 -41,2.9l17.6,-15zm26.6,11l-4.6,-8.6l7.9,-5.8c2.8,2.8 5.6,5.9 8.3,9.5c-4,2 -7.9,3.6 -11.6,4.9zm-5,-12.5c-0.6,-4.4 -3.8,-8.2 -8.4,-9.3c-5,-1.1 -10,1.4 -12.2,5.8l-9.3,-21.2c6.1,1.5 20.6,6.2 35.7,20.4l-5.8,4.3zm-33.1,-41.3c0.7,-0.5 1.6,-1.2 2.9,-2.1c0.2,1.2 0.3,2.5 0.4,3.8c-1.3,-0.3 -2.3,-0.5 -3,-0.6c-0.1,-0.4 -0.2,-0.8 -0.3,-1.1zm6.6,2.5c-0.1,-2.4 -0.3,-4.8 -0.8,-7.1c2.4,-2.1 5.2,-5 8.2,-8.6c2.5,5.8 3.4,12.4 2.7,19.4c-3.9,-1.8 -7.4,-3 -10.1,-3.7zm17.4,-29.9c1.2,-2 2.4,-4.1 3.6,-6.4c0,0 0,0 0.1,0c2.2,1.3 27.7,17.2 11.9,53.2c-2.6,-2 -5.2,-3.7 -7.7,-5.3c4.4,-15.8 1.5,-30.9 -7.9,-41.5zm15.1,-49.4c-10,47.8 -33.3,68.3 -39.9,73.3c-0.8,-2.8 -1.7,-5.5 -2.7,-8.1c4.9,-3.5 24.1,-19.4 31,-54.3l0.4,-1.9l-2,-0.1c-35.6,-1 -55.4,14.2 -59.9,18.2c-2.3,-1.6 -4.7,-3.1 -7.2,-4.5c6.2,-5.4 31.3,-23.5 80.3,-22.6zm-120.3,-57.9c31.1,37.6 32.7,68.6 32.4,76.9c-2.6,-1.1 -5.3,-2.1 -8,-2.9c0.3,-6 -0.2,-30.9 -23.1,-58.1l-1.3,-1.5l-1.3,1.5c-23,27.2 -23.4,52 -23.2,58.1c-2.7,0.8 -5.4,1.8 -8,2.9c-0.2,-8.4 1.3,-39.3 32.5,-76.9zm-39.9,80.5c-2.5,1.4 -4.9,2.9 -7.3,4.5c-4.5,-3.9 -24.2,-19.2 -59.9,-18.1l-2,0.1l0.4,1.9c6.9,35 26.1,50.8 31,54.3c-1,2.6 -2,5.3 -2.7,8.1c-6.7,-5 -29.9,-25.4 -39.9,-73.3c48.9,-1 74,17.1 80.4,22.5zm-42.3,58.8c-0.5,2.8 -0.8,5.6 -1,8.5c-5.9,1.1 -30.1,7 -51.5,35.5l-1.2,1.6l1.7,0.9c18,9.3 33.7,11.7 44.9,11.7c8.5,0 14.4,-1.3 16.9,-2c1.4,2.5 3,4.9 4.6,7.2c-8,2.1 -38.5,7.6 -82.3,-14.5c29.9,-38.9 59.8,-47.3 67.9,-48.9zm19.6,69.6c1.9,2.1 3.9,4.2 6,6.1c-2.8,5.2 -13.3,27.9 -4.4,62.4l0.5,1.9l1.8,-0.8c32.5,-14.5 43.7,-36.7 46.1,-42.3c2.8,0.4 5.6,0.7 8.5,0.8c-3.4,7.6 -18.1,34.8 -62.6,55.2c-11.8,-47.3 0.3,-75.9 4.1,-83.3zm129.3,83.5c-44.3,-20.4 -59.2,-47.6 -62.6,-55.2c2.9,-0.1 5.7,-0.4 8.5,-0.9c2.4,5.6 13.6,27.8 46.1,42.3l1.8,0.8l0.5,-1.9c8.9,-34.6 -1.5,-57.2 -4.4,-62.4c2.1,-1.9 4.1,-4 5.9,-6.1c3.9,7.3 16,35.9 4.2,83.4zm1,-89.9c1.7,-2.3 3.2,-4.7 4.6,-7.2c2.5,0.7 8.4,2 16.9,2c11.2,0 26.9,-2.4 44.9,-11.7l1.7,-0.9l-1.2,-1.6c-21.4,-28.5 -45.6,-34.4 -51.5,-35.5c-0.2,-2.9 -0.6,-5.7 -1,-8.5c8.2,1.6 38,9.9 67.8,48.7c-43.6,22.2 -74.2,16.8 -82.2,14.7z"/>
 </g>
</svg>