<svg width="309" height="309" xmlns="http://www.w3.org/2000/svg">
 <style type="text/css">.st0{fill:#fc5e21;}
	.st1{fill:#fc5e21;}</style>

 <g>
  <title>background</title>
  <rect x="-1" y="-1" width="311" height="311" id="canvas_background" fill="none"/>
 </g>
 <g>
  <title>Layer 1</title>
  <g stroke="null" id="svg_1">
   <ellipse stroke="null" fill="#fc5e21" stroke-width="1.5" stroke-opacity="null" fill-opacity="null" cx="154.062403" cy="159.965627" id="svg_39" rx="122.105573" ry="122.105573"/>
   <ellipse stroke="null" fill="#fc5e21" stroke-width="1.5" stroke-opacity="null" fill-opacity="null" cx="62.606811" cy="141.180149" id="svg_47" rx="38.0653" ry="38.0653"/>
   <ellipse stroke="null" fill="#fc5e21" stroke-width="1.5" stroke-opacity="null" fill-opacity="null" cx="81.886638" cy="218.793814" id="svg_54" rx="38.0653" ry="38.0653"/>
   <ellipse stroke="null" fill="#fc5e21" stroke-width="1.5" stroke-opacity="null" fill-opacity="null" cx="152.57934" cy="253.892988" id="svg_53" rx="38.0653" ry="38.0653"/>
   <ellipse stroke="null" fill="#fc5e21" stroke-width="1.5" stroke-opacity="null" fill-opacity="null" cx="226.73252" cy="220.276879" id="svg_52" rx="38.0653" ry="38.0653"/>
   <ellipse stroke="null" fill="#fc5e21" stroke-width="1.5" stroke-opacity="null" fill-opacity="null" cx="246.012348" cy="139.202737" id="svg_51" rx="38.0653" ry="38.0653"/>
   <ellipse stroke="null" fill="#fc5e21" stroke-width="1.5" stroke-opacity="null" fill-opacity="null" cx="196.576893" cy="77.408418" id="svg_50" rx="38.0653" ry="38.0653"/>
   <ellipse stroke="null" fill="#fc5e21" stroke-width="1.5" stroke-opacity="null" fill-opacity="null" cx="114.51404" cy="76.419709" id="svg_49" rx="38.0653" ry="38.0653"/>
   <path stroke="null" fill="#c1f7dc" stroke-width="1.5" d="m100.241415,116.423824c42.232401,50.503908 -41.65005,53.213288 -65.187314,-51.022122c106.837364,-2.191165 124.357402,79.88596 65.187314,51.022122z" id="svg_40"/>
   <path stroke="null" fill="#fc5e21" stroke-width="1.5" stroke-opacity="null" fill-opacity="null" opacity="0.5" d="m274.190558,65.049555" id="svg_38"/>
   <path stroke="null" fill="#c1f7dc" stroke-width="1.5" d="m85.593733,176.517466c65.781229,-2.655259 16.757395,65.464268 -80.195003,20.528135c63.437608,-85.992403 139.161557,-49.80553 80.195003,-20.528135z" id="svg_41"/>
   <path stroke="null" fill="#c1f7dc" stroke-width="1.5" d="m123.422448,226.068023c39.420914,-52.727715 61.374535,28.276265 -34.638975,75.185c-26.735559,-103.461265 49.100912,-139.41173 34.638975,-75.185z" id="svg_42"/>
   <path stroke="null" fill="#c1f7dc" stroke-width="1.5" d="m185.11931,227.618646c-17.354262,-63.506299 60.031738,-31.02533 38.006633,73.540047c-98.038371,-42.514717 -79.773802,-124.429379 -38.006633,-73.540047z" id="svg_43"/>
   <path stroke="null" fill="#c1f7dc" stroke-width="1.5" d="m225.496514,176.858066c-59.325453,-28.543144 15.943447,-65.667246 80.443654,19.531033c-96.387101,46.136213 -146.252776,-21.369497 -80.443654,-19.531033z" id="svg_44"/>
   <path stroke="null" fill="#c1f7dc" stroke-width="1.5" d="m211.049325,116.076113c-58.97821,29.253908 -42.000509,-52.937113 64.848994,-51.451441c-22.848485,104.388554 -106.746997,102.233109 -64.848994,51.451441z" id="svg_45"/>
   <path stroke="null" fill="#c1f7dc" stroke-width="1.5" d="m153.9837,90.223552c-14.93282,64.186828 -69.111069,-0.944936 1.131732,-82.772954c67.979337,83.717891 12.040617,147.344056 -1.131732,82.772954z" id="svg_46"/>
   <ellipse stroke="null" fill="#c45ab3" stroke-width="1.5" cx="154.803911" cy="161.201502" id="svg_56" rx="80.332609" ry="80.332609"/>
   <ellipse stroke="null" fill="#fc5e21" stroke-width="1.5" cx="154.803948" cy="160.707179" id="svg_57" rx="67.973756" ry="67.973756"/>
   <ellipse stroke="null" fill="#70146a" stroke-width="1.5" cx="155.051092" cy="160.954325" id="svg_55" rx="46.469325" ry="46.469325"/>
   <path stroke="null" d="m155.051324,112.062623c-26.991785,0 -48.941148,21.949364 -48.941148,48.941148s21.949364,48.941148 48.941148,48.941148s48.941148,-21.949364 48.941148,-48.941148s-21.949364,-48.941148 -48.941148,-48.941148zm0,94.619554c-25.212107,0 -45.678405,-20.466298 -45.678405,-45.678405s20.466298,-45.678405 45.678405,-45.678405c25.212107,0 45.678405,20.466298 45.678405,45.678405s-20.466298,45.678405 -45.678405,45.678405z" id="svg_2" fill="#70146a"/>
   <circle stroke="null" cx="154.55697" cy="103.85633" r="4.152578" id="svg_3" fill="#c1f7dc" stroke-width="1.5"/>
   <ellipse stroke="null" transform="matrix(0.20555282323185786,-0.9671561889629791,0.9671561889629791,0.20555282323185786,12.39233537365365,350.90973160970685) " cx="270.191605" cy="77.646347" rx="4.2" ry="4.2" id="svg_4" fill="#c1f7dc" stroke-width="1.5"/>
   <ellipse stroke="null" transform="matrix(0.9031866475339209,-0.40210838484077244,0.40210838484077244,0.9031866475339209,-56.71108308585874,91.43216688926249) " cx="167.039155" cy="93.606029" rx="4.2" ry="4.2" id="svg_5" fill="#c1f7dc" stroke-width="1.5"/>
   <ellipse stroke="null" transform="matrix(0.7998664453803416,-0.5811637782380281,0.5811637782380281,0.7998664453803416,-72.909120137362,138.62606684482586) " cx="173.290089" cy="96.107499" rx="4.2" ry="4.2" id="svg_6" fill="#c1f7dc" stroke-width="1.5"/>
   <ellipse stroke="null" transform="matrix(0.6615459068034444,-0.7347104518691369,0.7347104518691369,0.6615459068034444,-83.79669654018497,187.1254595747776) " cx="181.31993" cy="104.041508" rx="4.2" ry="4.2" id="svg_7" fill="#c1f7dc" stroke-width="1.5"/>
   <ellipse stroke="null" transform="matrix(0.49435503422765237,-0.8562229192822939,0.8562229192822939,0.49435503422765237,-89.21660739344325,237.87070722522557) " cx="190.892099" cy="117.324181" rx="4.2" ry="4.2" id="svg_8" fill="#c1f7dc" stroke-width="1.5"/>
   <ellipse stroke="null" transform="matrix(0.30551141115268915,-0.9403621461078403,0.9403621461078403,0.30551141115268915,-87.98813513338754,291.53561570782205) " cx="201.577705" cy="135.200577" rx="4.2" ry="4.2" id="svg_9" fill="#c1f7dc" stroke-width="1.5"/>
   <ellipse stroke="null" transform="matrix(0.10332020215357933,-0.9832721630788006,0.9832721630788006,0.10332020215357933,-78.10370396601932,348.0858767831917) " cx="212.895494" cy="156.957427" rx="4.2" ry="4.2" id="svg_10" fill="#c1f7dc" stroke-width="1.5"/>
   <ellipse stroke="null" transform="matrix(0.9832721630788006,-0.10332020215357933,0.10332020215357933,0.9832721630788006,-27.283413221375582,17.02441778349423) " cx="110.470045" cy="164.064407" rx="4.2" ry="4.2" id="svg_11" fill="#c1f7dc" stroke-width="1.5"/>
   <ellipse stroke="null" transform="matrix(0.9403621461078403,-0.30551141115268915,0.30551141115268915,0.9403621461078403,-70.41954818499154,60.297785704611776) " cx="127.690765" cy="167.298748" rx="4.2" ry="4.2" id="svg_12" fill="#c1f7dc" stroke-width="1.5"/>
   <ellipse stroke="null" transform="matrix(0.8562229192822939,-0.49435503422765237,0.49435503422765237,0.8562229192822939,-107.30565132187412,114.91749150031556) " cx="148.771303" cy="172.970883" rx="4.2" ry="4.2" id="svg_13" fill="#c1f7dc" stroke-width="1.5"/>
   <ellipse stroke="null" transform="matrix(0.7348093228759826,-0.6615459068034444,0.6615459068034444,0.7348093228759826,-134.04580947828208,180.5393651957763) " cx="172.797733" cy="180.932409" rx="4.2" ry="4.2" id="svg_14" fill="#c1f7dc" stroke-width="1.5"/>
   <ellipse stroke="null" transform="matrix(0.5811637782380281,-0.7998664453803416,0.7998664453803416,0.5811637782380281,-146.55951733069347,255.25717377901208) " cx="198.745839" cy="190.748412" rx="4.2" ry="4.2" id="svg_15" fill="#c1f7dc" stroke-width="1.5"/>
   <ellipse stroke="null" transform="matrix(0.40210838484077244,-0.9031866475339209,0.9031866475339209,0.40210838484077244,-141.24658490684206,335.4742866340032) " cx="225.367814" cy="201.949425" rx="4.2" ry="4.2" id="svg_16" fill="#c1f7dc" stroke-width="1.5"/>
   <ellipse stroke="null" transform="matrix(0.20555282323185786,-0.9670573179561335,0.9670573179561335,0.20555282323185786,-115.68180527981379,416.15965257741465) " cx="251.648267" cy="214.211988" rx="4.2" ry="4.2" id="svg_17" fill="#c1f7dc" stroke-width="1.5"/>
   <circle stroke="null" cx="155.051324" cy="218.052343" r="4.152578" id="svg_18" fill="#c1f7dc" stroke-width="1.5"/>
   <ellipse stroke="null" transform="matrix(0.9671561889629791,-0.20555282323185786,0.20555282323185786,0.9671561889629791,-57.07651032715981,52.315929321972106) " cx="187.008222" cy="209.898591" rx="4.2" ry="4.2" id="svg_19" fill="#c1f7dc" stroke-width="1.5"/>
   <ellipse stroke="null" transform="matrix(0.9031866475339209,-0.40210838484077244,0.40210838484077244,0.9031866475339209,-95.12711618266906,119.33920066846137) " cx="214.039155" cy="199.106029" rx="4.2" ry="4.2" id="svg_20" fill="#c1f7dc" stroke-width="1.5"/>
   <ellipse stroke="null" transform="matrix(0.7998664453803416,-0.5811637782380281,0.5811637782380281,0.7998664453803416,-114.39529573873972,195.7284236224209) " cx="241.090089" cy="189.507499" rx="4.2" ry="4.2" id="svg_21" fill="#c1f7dc" stroke-width="1.5"/>
   <ellipse stroke="null" transform="matrix(0.6615459068034444,-0.7347104518691369,0.7347104518691369,0.6615459068034444,-112.50409111979843,275.4786675830874) " cx="267.11993" cy="181.341508" rx="4.2" ry="4.2" id="svg_22" fill="#c1f7dc" stroke-width="1.5"/>
   <ellipse stroke="null" transform="matrix(0.49435503422765237,-0.8562229192822939,0.8562229192822939,0.49435503422765237,-89.21818932955279,352.06424835664217) " cx="290.892099" cy="175.024181" rx="4.2" ry="4.2" id="svg_23" fill="#c1f7dc" stroke-width="1.5"/>
   <ellipse stroke="null" transform="matrix(0.30551141115268915,-0.9403621461078403,0.9403621461078403,0.30551141115268915,-46.496917110660675,419.2266312097631) " cx="311.377705" cy="170.900577" rx="4.2" ry="4.2" id="svg_24" fill="#c1f7dc" stroke-width="1.5"/>
   <ellipse stroke="null" transform="matrix(0.10332020215357933,-0.9832721630788006,0.9832721630788006,0.10332020215357933,11.722879786302563,471.72248890741804) " cx="327.695494" cy="169.057427" rx="4.2" ry="4.2" id="svg_25" fill="#c1f7dc" stroke-width="1.5"/>
   <ellipse stroke="null" transform="matrix(0.9832721630788006,-0.10332020215357933,0.10332020215357933,0.9832721630788006,-25.417618451193572,28.83624035830922) " cx="225.270045" cy="151.964407" rx="4.2" ry="4.2" id="svg_26" fill="#c1f7dc" stroke-width="1.5"/>
   <ellipse stroke="null" transform="matrix(0.9403621461078403,-0.30551141115268915,0.30551141115268915,0.9403621461078403,-54.20035273802334,92.13701829706427) " cx="237.490765" cy="131.598748" rx="4.2" ry="4.2" id="svg_27" fill="#c1f7dc" stroke-width="1.5"/>
   <ellipse stroke="null" transform="matrix(0.8562229192822939,-0.49435503422765237,0.49435503422765237,0.8562229192822939,-65.50407720865915,156.71155141701027) " cx="248.771303" cy="115.270883" rx="4.2" ry="4.2" id="svg_28" fill="#c1f7dc" stroke-width="1.5"/>
   <ellipse stroke="null" transform="matrix(0.7347104518691369,-0.6615459068034444,0.6615459068034444,0.7347104518691369,-61.11657740888188,217.7017139257853) " cx="258.603162" cy="103.626334" rx="4.2" ry="4.2" id="svg_29" fill="#c1f7dc" stroke-width="1.5"/>
   <ellipse stroke="null" transform="matrix(0.5811637782380281,-0.7998664453803416,0.7998664453803416,0.5811637782380281,-44.14447924478496,271.4802251952473) " cx="266.545839" cy="97.348412" rx="4.2" ry="4.2" id="svg_30" fill="#c1f7dc" stroke-width="1.5"/>
   <ellipse stroke="null" transform="matrix(0.40210838484077244,-0.9031866475339209,0.9031866475339209,0.40210838484077244,-18.380672280976636,316.0205261980835) " cx="272.367814" cy="96.449425" rx="4.2" ry="4.2" id="svg_31" fill="#c1f7dc" stroke-width="1.5"/>
   <ellipse stroke="null" transform="matrix(0.20555282323185786,-0.9671561889629791,0.9671561889629791,0.20555282323185786,12.39233537365365,350.90973160970685) " cx="275.54104" cy="100.73039" rx="4.2" ry="4.2" id="svg_32" fill="#c1f7dc" stroke-width="1.5"/>
   <path stroke="null" d="m308.301384,195.905237l-1.186452,-1.581936c-8.997262,-11.864521 -17.895652,-21.059524 -26.299688,-28.079366c6.130002,-0.494355 9.392746,-2.175162 10.282585,-5.042421c1.186452,-3.855969 -2.867259,-8.107423 -5.734518,-10.579198c6.822099,-2.669517 9.985972,-5.437905 9.985972,-8.79952c-0.098871,-4.548066 -6.525486,-7.711939 -10.282585,-9.195004c5.635647,-6.426615 7.415326,-10.875811 5.635647,-14.138554c-2.274033,-4.053711 -9.392746,-3.658227 -13.545328,-3.163872c1.878549,-7.514197 1.384194,-11.963392 -1.483065,-13.940812c-2.768388,-1.878549 -6.822099,-0.395484 -10.183714,1.384194c4.745808,-10.282585 9.096133,-22.740332 12.062263,-38.065338l0.395484,-1.878549l-1.97742,-0.098871c-14.929522,-0.395484 -27.585011,0.889839 -38.361951,3.065001c3.361614,-5.042421 4.152582,-8.700649 2.471775,-11.172424c-2.274033,-3.361614 -8.107423,-2.867259 -11.864521,-2.076291c2.175162,-6.92097 1.97742,-11.172424 -0.692097,-13.248715c-3.559356,-2.768388 -10.084843,0.296613 -13.545328,2.372904c-1.483065,-8.404036 -3.95484,-12.556618 -7.514197,-13.149844c-4.548066,-0.692097 -8.79952,5.042421 -10.875811,8.601778c-4.745808,-6.228873 -8.502907,-8.601778 -11.76565,-7.514197c-3.163872,0.98871 -4.646937,5.042421 -5.240163,8.79952c-5.042421,-10.084843 -12.161134,-21.257266 -22.147106,-33.220658l-1.285323,-1.483065l-1.285323,1.483065c-9.689359,11.469037 -16.610329,22.245977 -21.65275,31.935335c-1.878549,-5.833389 -4.251453,-8.700649 -7.217583,-8.898391c-4.053711,-0.296613 -7.316455,4.548066 -9.096133,8.008552c-4.053711,-6.031131 -7.514197,-8.502907 -10.77694,-7.711939c-4.449195,1.087581 -6.031131,8.008552 -6.624357,12.062263c-7.514197,-4.053711 -12.260005,-4.745808 -15.028393,-2.274033c-3.460485,3.065001 -1.483065,9.985972 0,13.940812c-7.81081,-0.197742 -11.963392,1.285323 -13.248715,4.548066c-1.186452,3.065001 1.087581,6.822099 3.658227,9.590488c-11.073553,-2.372904 -24.223397,-3.757098 -39.845016,-3.361614l-1.97742,0.098871l0.395484,1.878549c2.867259,14.632909 7.019841,26.794043 11.469037,36.780015c-5.734518,-2.175162 -9.392746,-2.175162 -11.469037,0.098871c-2.768388,2.96613 -0.98871,8.502907 0.593226,12.062263c-7.316455,-0.593226 -11.370166,0.593226 -12.75436,3.658227c-1.878549,4.152582 2.471775,9.78823 5.339034,12.75436c-7.81081,3.361614 -11.370166,6.624357 -11.172424,10.282585c0.296613,4.646937 6.92097,7.415326 10.875811,8.700649c-4.94355,5.93226 -6.525486,10.183714 -4.745808,13.149844c1.483065,2.570646 4.94355,3.262743 8.404036,3.262743c0.494355,0 0.889839,0 1.384194,0c-8.700649,7.118712 -18.093394,16.610329 -27.387269,29.068076l-1.186452,1.581936l1.680807,0.889839c13.248715,6.822099 25.310978,11.172424 35.890175,13.940812c-5.240163,3.163872 -7.514197,6.031131 -7.118712,8.997262c0.593226,3.95484 6.130002,6.130002 9.78823,7.019841c-5.042421,5.339034 -6.624357,9.293875 -5.141292,12.260005c1.97742,4.053711 9.195004,4.152582 13.248715,3.757098c-2.274033,8.206294 -1.97742,13.050973 1.087581,15.127264c3.757098,2.669517 10.084843,-0.790968 13.545328,-3.065001c1.581936,7.613068 3.95484,11.370166 7.316455,11.864521c0.197742,0 0.494355,0 0.692097,0c3.065001,0 5.833389,-2.867259 7.909681,-5.734518c0.197742,11.271295 1.680807,24.421139 5.635647,39.548403l0.494355,1.878549l1.779678,-0.790968c13.644199,-6.031131 24.52001,-12.75436 33.220658,-19.378717c-0.790968,6.031131 0,9.590488 2.669517,11.172424c3.460485,2.076291 8.502907,-0.98871 11.567908,-3.262743c1.087581,7.217583 3.065001,10.974682 6.327744,11.666779c4.449195,0.98871 8.898391,-4.646937 11.172424,-8.008552c4.350324,5.93226 7.909681,8.79952 11.073553,8.79952c0.494355,0 0.98871,-0.098871 1.483065,-0.197742c4.449195,-1.285323 5.734518,-8.404036 6.031131,-12.457747c6.92097,3.559356 11.370166,4.053711 13.841941,1.680807c2.372904,-2.274033 1.97742,-6.624357 0.889839,-10.183714c8.898391,6.92097 20.169685,13.940812 34.40711,20.268556l1.779678,0.790968l0.494355,-1.878549c3.757098,-14.435167 5.339034,-27.090656 5.536776,-38.065338c3.361614,3.559356 6.130002,5.240163 8.601778,5.240163c0.593226,0 1.186452,-0.098871 1.779678,-0.296613c3.757098,-1.483065 4.548066,-7.316455 4.745808,-11.073553c6.327744,3.658227 10.480327,4.449195 13.050973,2.274033c3.559356,-2.867259 1.97742,-9.887101 0.692097,-13.74307c8.502907,0.395484 13.149844,-0.98871 14.534038,-4.449195c1.779678,-4.251453 -2.96613,-9.689359 -6.031131,-12.556618c7.118712,-3.262743 10.282585,-6.327744 9.985972,-9.78823c-0.296613,-3.262743 -3.95484,-5.635647 -7.415326,-7.118712c10.974682,-2.669517 23.432429,-7.118712 37.27437,-14.237425l1.97742,-1.384194zm-45.381792,16.610329c0,0 0.098871,0 0.098871,0c0.395484,2.471775 3.658227,32.133077 -33.813884,42.020178c-0.098871,-3.262743 -0.395484,-6.327744 -0.692097,-9.195004c14.929522,-6.327744 24.816623,-17.895652 27.288398,-31.638722c2.372904,-0.395484 4.646937,-0.790968 7.118712,-1.186452zm-37.472112,16.115974c-1.087581,-4.053711 -2.372904,-7.415326 -3.460485,-10.084843c1.878549,-1.581936 3.559356,-3.262743 5.042421,-4.94355c3.065001,0.494355 7.019841,0.889839 11.76565,1.087581c-2.96613,5.437905 -7.514197,10.282585 -13.347586,13.940812zm-43.404372,48.842277c0,0 0,0 0,0c-1.680807,1.878549 -22.641461,23.036945 -53.884699,-0.098871c2.471775,-2.076291 4.745808,-4.251453 6.822099,-6.228873c7.613068,4.152582 15.621619,6.228873 23.135816,6.228873c6.525486,0 12.853231,-1.581936 18.587749,-4.646937c1.680807,1.483065 3.460485,3.065001 5.339034,4.745808zm-35.989046,-19.279846c2.471775,-3.460485 4.350324,-6.525486 5.734518,-8.997262c2.372904,0.494355 4.745808,0.790968 7.019841,0.889839c1.581936,2.768388 3.658227,6.130002 6.525486,9.78823c-6.130002,1.186452 -12.75436,0.593226 -19.279846,-1.680807zm-44.887437,-33.319529l10.579198,20.268556c-1.878549,-0.395484 -3.95484,-0.296613 -5.833389,0.395484c-2.669517,0.98871 -4.844679,2.867259 -6.130002,5.437905c-1.97742,4.152582 -1.087581,8.997262 1.97742,12.161134l-6.822099,1.878549c-1.680807,-20.466298 3.559356,-34.604852 6.228873,-40.141629zm-44.689695,-10.974682c2.867259,15.918232 11.864521,28.178237 24.816623,33.616142c-0.197742,2.274033 -0.395484,4.646937 -0.395484,7.217583c0,0 0,0.098871 0,0.098871c-2.471775,-0.197742 -32.133077,-3.559356 -33.4184,-42.316791c3.065001,0.593226 6.130002,1.087581 8.997262,1.384194zm27.585011,16.808071c-4.745808,-4.152582 -8.404036,-9.590488 -10.678069,-16.115974c4.251453,-0.197742 7.81081,-0.593226 10.579198,-1.087581c1.087581,2.175162 2.372904,4.152582 3.757098,6.031131c-1.186452,2.867259 -2.471775,6.624357 -3.658227,11.172424zm5.240163,-14.73178c-0.692097,-0.98871 -1.285323,-2.076291 -1.878549,-3.163872c1.285323,-0.296613 2.175162,-0.593226 2.867259,-0.790968c0.197742,0.296613 0.395484,0.593226 0.692097,0.790968c-0.494355,0.692097 -0.98871,1.680807 -1.680807,3.163872zm-53.785828,-54.576796c-0.098871,0 -0.098871,0 0,0c-1.483065,-2.076291 -17.302426,-27.288398 12.062263,-52.500505c1.483065,2.867259 3.065001,5.536776 4.548066,8.008552c-10.678069,12.161134 -14.632909,26.892914 -10.77694,40.339371c-1.878549,1.285323 -3.855969,2.669517 -5.833389,4.152582zm26.695172,-30.847754c2.768388,3.163872 5.339034,5.734518 7.514197,7.613068c-0.98871,2.175162 -1.779678,4.449195 -2.372904,6.723228c-3.065001,0.889839 -6.723228,2.175162 -11.073553,4.152582c0.296613,-6.327744 2.372904,-12.556618 5.93226,-18.488878zm10.084843,9.78823c0.98871,0.790968 1.779678,1.384194 2.372904,1.779678c-0.098871,0.395484 -0.197742,0.692097 -0.197742,1.087581c-0.790968,0.098871 -1.97742,0.296613 -3.460485,0.692097c0.395484,-1.285323 0.790968,-2.471775 1.285323,-3.559356zm7.909681,-72.571319c0,0 -0.098871,-0.098871 0,0c0.692097,-2.471775 10.579198,-30.551141 48.545664,-23.234687c-1.285323,2.96613 -2.471775,5.833389 -3.361614,8.601778c-16.214845,-0.790968 -30.155657,5.339034 -38.26308,16.7092c-2.175162,-0.790968 -4.548066,-1.483065 -6.92097,-2.076291zm101.046169,-23.5313c2.274033,-0.889839 30.45227,-10.77694 48.446793,23.5313c-3.163872,0.790968 -6.130002,1.779678 -8.79952,2.669517c-9.491617,-13.149844 -22.938074,-20.169685 -36.977757,-19.477588c-0.790968,-2.175162 -1.680807,-4.350324 -2.669517,-6.723228c0,0 0,0 0,0zm24.124526,33.022916c-3.757098,1.97742 -6.723228,3.95484 -9.096133,5.635647c-1.878549,-1.483065 -3.95484,-2.768388 -6.031131,-3.855969c-0.197742,-3.163872 -0.692097,-7.118712 -1.581936,-11.666779c6.031131,1.680807 11.76565,5.042421 16.7092,9.887101zm-14.929522,5.635647c1.087581,0.593226 2.076291,1.285323 3.163872,2.076291c-0.98871,0.790968 -1.779678,1.483065 -2.274033,1.97742c-0.296613,-0.197742 -0.692097,-0.296613 -0.98871,-0.494355c0.098871,-0.889839 0.098871,-2.076291 0.098871,-3.559356zm22.344848,130.015374c-0.889839,0.98871 -4.350324,0.395484 -7.81081,-2.768388c-0.197742,-0.197742 -0.395484,-0.395484 -0.593226,-0.593226l4.251453,-4.745808c0.197742,0.197742 0.395484,0.296613 0.593226,0.494355c1.680807,1.483065 2.96613,3.262743 3.559356,4.844679c0.296613,1.285323 0.395484,2.372904 0,2.768388zm-17.69791,31.243238l-18.488878,-3.559356c9.985972,-2.669517 19.180975,-7.217583 27.288398,-13.149844l-8.79952,16.7092zm-40.042758,-5.536776c-1.285323,0 -3.163872,-2.96613 -3.163872,-7.711939c0,-0.296613 0,-0.494355 0,-0.790968l6.327744,0c0,0.296613 0,0.494355 0,0.790968c0,4.745808 -1.878549,7.711939 -3.163872,7.711939zm0,-11.864521c-36.28566,0 -65.74922,-29.46356 -65.74922,-65.74922s29.46356,-65.74922 65.74922,-65.74922c36.28566,0 65.74922,29.46356 65.74922,65.74922s-29.46356,65.74922 -65.74922,65.74922zm-48.842277,0.692097c8.107423,5.93226 17.302426,10.480327 27.288398,13.149844l-18.488878,3.559356l-8.79952,-16.7092zm-8.898391,-14.534038c-0.889839,-0.98871 0.098871,-4.350324 3.559356,-7.514197c0.197742,-0.197742 0.395484,-0.395484 0.593226,-0.494355l4.251453,4.745808c-0.197742,0.197742 -0.395484,0.395484 -0.593226,0.593226c-3.361614,3.065001 -6.92097,3.658227 -7.81081,2.669517zm-19.67533,-55.170022c1.878549,1.186452 4.449195,2.076291 7.118712,2.372904c0.395484,0 0.790968,0 1.186452,0.098871c0,0.296613 0,0.494355 0,0.790968c0,0.296613 0,0.494355 0,0.790968c-0.395484,0 -0.790968,0 -1.186452,0.098871c-2.768388,0.296613 -5.240163,1.087581 -7.118712,2.372904c-0.692097,0.395484 -1.186452,0.889839 -1.680807,1.483065c-0.098871,-1.581936 -0.197742,-3.065001 -0.197742,-4.646937c0,-1.581936 0.098871,-3.163872 0.197742,-4.646937c0.494355,0.395484 0.98871,0.790968 1.680807,1.285323zm12.655489,27.585011c-0.296613,0.098871 -0.494355,0.197742 -0.790968,0.296613c-2.076291,0.692097 -4.251453,0.889839 -5.93226,0.593226c-1.285323,-0.197742 -2.175162,-0.692097 -2.372904,-1.285323c-0.395484,-1.186452 1.878549,-3.95484 6.327744,-5.437905c0.296613,-0.098871 0.494355,-0.197742 0.790968,-0.197742l1.97742,6.031131zm-3.757098,-8.898391c-3.757098,1.186452 -6.525486,3.262743 -7.81081,5.536776c-0.790968,-2.96613 -1.483065,-6.031131 -1.97742,-9.096133c1.680807,1.285323 4.350324,1.97742 7.316455,1.97742c0.692097,0 1.384194,0 2.076291,-0.098871c0.395484,0 0.790968,-0.098871 1.186452,-0.197742c0.098871,0.494355 0.197742,0.98871 0.296613,1.581936c-0.296613,0.098871 -0.692097,0.197742 -1.087581,0.296613zm1.285323,-54.280183c0.296613,-0.494355 1.087581,-0.790968 2.274033,-0.790968c0.098871,0 0.197742,0 0.296613,0c1.680807,0.098871 3.757098,0.790968 5.635647,1.878549c0.197742,0.098871 0.494355,0.296613 0.692097,0.395484l-3.163872,5.437905c-0.197742,-0.098871 -0.494355,-0.197742 -0.692097,-0.395484c-1.878549,-1.087581 -3.559356,-2.570646 -4.449195,-3.95484c-0.692097,-0.98871 -0.889839,-1.97742 -0.593226,-2.570646zm9.887101,-1.779678c-2.372904,-1.384194 -4.94355,-2.175162 -7.118712,-2.274033c-0.790968,0 -1.483065,0 -2.175162,0.197742c1.680807,-2.570646 3.460485,-5.141292 5.437905,-7.514197c0.296613,2.570646 1.97742,5.635647 4.94355,8.206294c0.296613,0.296613 0.692097,0.494355 0.98871,0.790968c-0.296613,0.395484 -0.593226,0.889839 -0.98871,1.285323c-0.395484,-0.197742 -0.692097,-0.494355 -1.087581,-0.692097zm14.138554,-13.446457c-0.197742,-0.197742 -0.296613,-0.395484 -0.494355,-0.593226c-2.768388,-3.757098 -2.96613,-7.316455 -1.97742,-8.107423c0.197742,-0.098871 0.494355,-0.197742 0.790968,-0.197742c1.483065,0 4.053711,1.483065 6.327744,4.548066c0.197742,0.197742 0.296613,0.395484 0.494355,0.692097l-5.141292,3.658227zm-3.163872,1.285323c0.197742,0.296613 0.494355,0.692097 0.790968,0.98871c-0.395484,0.395484 -0.790968,0.692097 -1.186452,1.087581c-0.296613,-0.296613 -0.593226,-0.593226 -0.889839,-0.889839c-2.867259,-2.570646 -6.130002,-4.053711 -8.700649,-4.053711c2.175162,-2.175162 4.449195,-4.251453 6.92097,-6.228873c-0.296613,2.570646 0.790968,5.93226 3.065001,9.096133zm-26.49743,14.039683l0.692097,-18.884362l18.291136,-4.844679c-7.711939,6.723228 -14.138554,14.73178 -18.983233,23.729042zm2.570646,2.274033c0.197742,0.692097 0.494355,1.285323 0.98871,1.97742c1.186452,1.878549 3.163872,3.658227 5.536776,5.042421c0.395484,0.197742 0.692097,0.395484 1.087581,0.593226c-0.197742,0.494355 -0.494355,0.98871 -0.692097,1.483065c-0.395484,-0.197742 -0.790968,-0.296613 -1.186452,-0.395484c-2.570646,-0.889839 -5.240163,-1.087581 -7.514197,-0.790968c-0.790968,0.098871 -1.483065,0.395484 -2.175162,0.593226c1.186452,-2.867259 2.471775,-5.734518 3.95484,-8.502907zm-6.92097,28.375979c0.098871,-1.087581 2.570646,-2.471775 6.228873,-2.471775c0.593226,0 1.087581,0 1.680807,0.098871c0.296613,0 0.494355,0.098871 0.790968,0.098871l-0.692097,6.327744c-0.296613,0 -0.494355,0 -0.790968,-0.098871c-2.175162,-0.197742 -4.251453,-0.889839 -5.635647,-1.878549c-0.98871,-0.692097 -1.680807,-1.483065 -1.581936,-2.076291zm-5.240163,11.370166c0.395484,10.480327 2.768388,20.367427 6.723228,29.46356l-14.237425,-12.161134l7.514197,-17.302426zm8.305165,24.618881c0.593226,0.296613 1.384194,0.494355 2.175162,0.593226c0.692097,0.098871 1.285323,0.197742 2.076291,0.197742c1.680807,0 3.559356,-0.296613 5.437905,-0.889839c0.395484,-0.098871 0.790968,-0.296613 1.186452,-0.395484c0.197742,0.494355 0.395484,0.98871 0.692097,1.483065c-0.395484,0.197742 -0.692097,0.395484 -1.087581,0.593226c-2.372904,1.384194 -4.350324,3.163872 -5.536776,5.042421c-0.395484,0.692097 -0.692097,1.285323 -0.98871,1.97742c-1.581936,-2.867259 -2.867259,-5.734518 -3.95484,-8.601778zm54.181312,48.743406c-3.065001,-0.790968 -6.031131,-1.779678 -8.898391,-2.867259c0.593226,-0.296613 1.285323,-0.692097 1.878549,-1.186452c1.779678,-1.384194 3.361614,-3.559356 4.449195,-6.031131c0.197742,-0.395484 0.296613,-0.790968 0.494355,-1.186452c0.494355,0.197742 0.98871,0.395484 1.483065,0.494355c-0.098871,0.395484 -0.197742,0.790968 -0.296613,1.186452c-0.790968,3.855969 -0.395484,7.415326 0.889839,9.590488zm-11.370166,-14.039683c0.098871,-0.197742 0.197742,-0.494355 0.296613,-0.692097l5.734518,2.570646c-0.098871,0.296613 -0.197742,0.494355 -0.296613,0.692097c-0.889839,1.97742 -2.175162,3.757098 -3.460485,4.844679c-0.98871,0.790968 -1.97742,1.186452 -2.570646,0.889839c-1.087581,-0.494355 -1.581936,-4.053711 0.296613,-8.305165zm-2.96613,-1.384194c-1.581936,3.559356 -1.97742,7.019841 -1.186452,9.491617c-2.768388,-1.384194 -5.437905,-2.96613 -8.008552,-4.646937c0.692097,-0.098871 1.384194,-0.395484 2.076291,-0.692097c1.97742,-0.98871 3.95484,-2.768388 5.635647,-5.042421c0.197742,-0.296613 0.494355,-0.692097 0.692097,-0.98871c0.494355,0.296613 0.889839,0.494355 1.384194,0.790968c-0.296613,0.395484 -0.494355,0.790968 -0.593226,1.087581zm49.435503,-142.37425c-4.94355,-0.889839 -9.985972,-1.384194 -15.127264,-1.384194c-5.141292,0 -10.183714,0.494355 -15.127264,1.384194l15.127264,-11.271295l15.127264,11.271295zm2.570646,13.347586c-0.098871,0.296613 -0.098871,0.494355 -0.197742,0.790968l-6.228873,-1.285323c0,-0.296613 0.098871,-0.494355 0.098871,-0.790968c0.494355,-2.175162 1.384194,-4.152582 2.372904,-5.437905c0.790968,-0.98871 1.680807,-1.483065 2.274033,-1.384194c1.384194,0.197742 2.570646,3.559356 1.680807,8.107423zm-6.426615,-8.79952c-1.384194,1.779678 -2.471775,4.152582 -3.065001,6.822099c-0.098871,0.395484 -0.197742,0.790968 -0.197742,1.186452c-0.494355,-0.098871 -1.087581,-0.098871 -1.581936,-0.197742c0,-0.395484 0,-0.790968 0,-1.186452c0,-3.95484 -1.087581,-7.217583 -2.867259,-9.195004c3.163872,0.098871 6.228873,0.494355 9.293875,0.98871c-0.494355,0.395484 -0.98871,0.889839 -1.581936,1.581936zm-27.387269,0.692097c0.098871,0 0.098871,0 0.197742,0c0.593226,0 1.384194,0.494355 2.076291,1.384194c1.087581,1.285323 1.97742,3.262743 2.372904,5.437905c0.098871,0.296613 0.098871,0.494355 0.098871,0.790968l-6.228873,1.285323c-0.098871,-0.296613 -0.098871,-0.494355 -0.197742,-0.790968c-0.790968,-4.548066 0.395484,-7.909681 1.680807,-8.107423zm7.909681,6.130002c-0.593226,-2.669517 -1.680807,-5.141292 -3.065001,-6.822099c-0.494355,-0.593226 -1.087581,-1.087581 -1.581936,-1.581936c3.065001,-0.494355 6.130002,-0.790968 9.293875,-0.98871c-1.779678,1.878549 -2.867259,5.240163 -2.867259,9.195004c0,0.395484 0,0.790968 0,1.186452c-0.494355,0 -1.087581,0.098871 -1.581936,0.197742c-0.098871,-0.395484 -0.098871,-0.790968 -0.197742,-1.186452zm78.404708,68.913092c2.768388,-0.296613 5.240163,-1.087581 7.118712,-2.372904c0.692097,-0.395484 1.186452,-0.889839 1.680807,-1.483065c0.098871,1.581936 0.197742,3.065001 0.197742,4.646937c0,1.581936 -0.098871,3.163872 -0.197742,4.646937c-1.779678,-1.878549 -4.94355,-3.361614 -8.79952,-3.757098c-0.395484,0 -0.790968,-0.098871 -1.186452,-0.098871c0,-0.296613 0,-0.494355 0,-0.790968c0,-0.296613 0,-0.593226 0,-0.790968c0.395484,0 0.790968,0 1.186452,0zm-1.779678,-9.491617c0.296613,0 0.494355,-0.098871 0.790968,-0.098871c4.646937,-0.494355 7.81081,1.087581 8.008552,2.372904c0.098871,0.593226 -0.593226,1.384194 -1.581936,2.175162c-1.384194,0.889839 -3.460485,1.581936 -5.635647,1.878549c-0.296613,0 -0.494355,0 -0.790968,0.098871l-0.790968,-6.426615zm8.008552,31.342109c-0.296613,-0.593226 -0.790968,-1.186452 -1.384194,-1.779678c-1.581936,-1.581936 -3.855969,-2.96613 -6.525486,-3.757098c-0.395484,-0.098871 -0.790968,-0.197742 -1.186452,-0.296613c0.098871,-0.494355 0.197742,-0.98871 0.296613,-1.581936c0.395484,0.098871 0.790968,0.098871 1.186452,0.197742c0.692097,0.098871 1.384194,0.098871 2.076291,0.098871c3.065001,0 5.635647,-0.692097 7.316455,-1.97742c-0.296613,3.065001 -0.98871,6.130002 -1.779678,9.096133zm-14.929522,-52.797118l-3.163872,-5.536776c0.197742,-0.098871 0.494355,-0.296613 0.692097,-0.395484c4.053711,-2.372904 7.613068,-2.175162 8.206294,-1.087581c0.692097,1.087581 -0.98871,4.251453 -5.042421,6.624357c-0.296613,0.098871 -0.494355,0.197742 -0.692097,0.395484zm-4.152582,-8.79952c-0.395484,0.197742 -0.692097,0.395484 -1.087581,0.692097c-0.296613,-0.395484 -0.593226,-0.889839 -0.98871,-1.285323c0.296613,-0.296613 0.692097,-0.494355 0.98871,-0.790968c2.076291,-1.878549 3.559356,-4.053711 4.350324,-6.130002c0.296613,-0.790968 0.395484,-1.483065 0.494355,-2.175162c1.97742,2.372904 3.757098,4.94355 5.437905,7.514197c-2.372904,-0.494355 -5.833389,0.296613 -9.195004,2.175162zm9.392746,58.92712c0.296613,0.098871 0.494355,0.098871 0.790968,0.197742c2.076291,0.692097 3.95484,1.779678 5.141292,2.96613c0.889839,0.889839 1.384194,1.878549 1.186452,2.471775c-0.197742,0.593226 -1.087581,1.087581 -2.372904,1.285323c-1.680807,0.296613 -3.855969,0 -5.93226,-0.593226c-0.296613,-0.098871 -0.494355,-0.197742 -0.790968,-0.296613l1.97742,-6.031131zm5.240163,-46.864857c-2.175162,-0.395484 -4.844679,-0.098871 -7.514197,0.790968c-0.395484,0.098871 -0.790968,0.296613 -1.186452,0.395484c-0.197742,-0.494355 -0.395484,-0.98871 -0.692097,-1.483065c0.395484,-0.197742 0.692097,-0.395484 1.087581,-0.593226c3.361614,-1.97742 5.734518,-4.548066 6.525486,-7.019841c1.384194,2.768388 2.669517,5.536776 3.855969,8.502907c-0.494355,-0.197742 -1.285323,-0.395484 -2.076291,-0.593226zm-18.093394,-33.912755l18.291136,4.844679l0.692097,18.884362c-4.844679,-8.997262 -11.271295,-17.005813 -18.983233,-23.729042zm-8.206294,-0.395484c1.087581,0.790968 0.790968,4.251453 -1.97742,8.107423c-0.197742,0.197742 -0.296613,0.395484 -0.494355,0.593226l-5.141292,-3.757098c0.098871,-0.197742 0.296613,-0.395484 0.494355,-0.692097c2.768388,-3.658227 6.031131,-4.94355 7.118712,-4.251453zm0.692097,10.084843c2.274033,-3.163872 3.361614,-6.426615 3.065001,-8.997262c2.372904,1.97742 4.745808,3.95484 6.92097,6.228873c-2.570646,0 -5.734518,1.384194 -8.700649,4.053711c-0.296613,0.296613 -0.593226,0.593226 -0.889839,0.889839c-0.395484,-0.395484 -0.790968,-0.692097 -1.186452,-1.087581c0.296613,-0.395484 0.494355,-0.790968 0.790968,-1.087581zm-25.50872,119.83166c-0.098871,-0.395484 -0.197742,-0.790968 -0.296613,-1.186452c0.494355,-0.197742 0.98871,-0.296613 1.483065,-0.494355c0.098871,0.395484 0.296613,0.790968 0.494355,1.186452c1.087581,2.471775 2.669517,4.646937 4.449195,6.031131c0.593226,0.494355 1.285323,0.889839 1.878549,1.186452c-2.867259,1.087581 -5.833389,2.076291 -8.898391,2.867259c1.285323,-2.175162 1.680807,-5.734518 0.889839,-9.590488zm10.678069,3.855969c-0.593226,0.296613 -1.581936,-0.098871 -2.570646,-0.889839c-1.285323,-1.087581 -2.570646,-2.867259 -3.460485,-4.844679c-0.098871,-0.197742 -0.197742,-0.494355 -0.296613,-0.692097l5.734518,-2.570646c0.098871,0.197742 0.197742,0.494355 0.296613,0.692097c1.97742,4.251453 1.483065,7.81081 0.296613,8.305165zm2.867259,-9.689359c-0.197742,-0.395484 -0.395484,-0.790968 -0.593226,-1.087581c0.494355,-0.296613 0.98871,-0.494355 1.384194,-0.790968c0.197742,0.395484 0.395484,0.692097 0.692097,1.087581c2.274033,3.163872 5.141292,5.240163 7.711939,5.734518c-2.570646,1.680807 -5.240163,3.262743 -8.008552,4.646937c0.692097,-2.471775 0.395484,-5.93226 -1.186452,-9.590488zm29.364689,-31.836464c-0.395484,-0.197742 -0.692097,-0.395484 -1.087581,-0.593226c0.197742,-0.494355 0.494355,-0.98871 0.692097,-1.483065c0.395484,0.197742 0.790968,0.296613 1.186452,0.395484c1.878549,0.593226 3.757098,0.889839 5.437905,0.889839c0.692097,0 1.384194,-0.098871 2.076291,-0.197742c0.790968,-0.098871 1.483065,-0.395484 2.175162,-0.593226c-1.087581,2.96613 -2.372904,5.734518 -3.855969,8.502907c-0.889839,-2.372904 -3.163872,-4.94355 -6.624357,-6.92097zm18.68662,-26.101946l7.613068,17.203555l-14.336296,12.260005c3.95484,-9.096133 6.327744,-18.983233 6.723228,-29.46356zm-4.152582,-15.127264c-2.076291,-1.483065 -5.536776,-2.274033 -9.491617,-1.878549c-0.395484,0 -0.790968,0.098871 -1.186452,0.197742c-0.098871,-0.494355 -0.197742,-0.98871 -0.296613,-1.581936c0.395484,-0.098871 0.790968,-0.197742 1.186452,-0.296613c2.570646,-0.889839 4.94355,-2.175162 6.525486,-3.757098c0.593226,-0.593226 0.98871,-1.186452 1.384194,-1.779678c0.790968,2.867259 1.483065,5.93226 1.878549,9.096133zm-2.867259,-45.18405c1.581936,1.186452 3.361614,1.97742 5.437905,2.175162c0.395484,0 0.790968,0.098871 1.186452,0.098871c2.471775,0 4.745808,-0.790968 6.723228,-2.372904c3.658227,-2.867259 4.844679,-7.711939 3.460485,-11.864521l7.019841,1.285323c-7.316455,19.082104 -18.192265,29.562431 -23.036945,33.517271l-0.790968,-22.839203zm24.915494,-13.74307l-9.491617,-1.779678l0.395484,-9.689359c3.559356,-0.395484 7.316455,-0.593226 11.271295,-0.593226c0.395484,0 0.790968,0 1.186452,0c-0.889839,4.350324 -2.076291,8.404036 -3.361614,12.062263zm-12.655489,-3.855969c-3.757098,-2.274033 -8.700649,-2.175162 -12.358876,0.790968c-3.95484,3.163872 -5.042421,8.601778 -3.065001,12.952102l-22.147106,-5.833389c4.844679,-3.757098 17.500168,-12.062263 37.768725,-14.929522l-0.197742,7.019841zm-51.808408,14.237425c-0.197742,0.296613 -0.395484,0.692097 -0.692097,1.087581c-0.494355,-0.296613 -0.98871,-0.593226 -1.384194,-0.790968c0.197742,-0.395484 0.395484,-0.692097 0.593226,-1.087581c1.581936,-3.559356 1.97742,-7.019841 1.186452,-9.491617c2.768388,1.384194 5.437905,2.96613 8.008552,4.646937c-2.570646,0.395484 -5.437905,2.471775 -7.711939,5.635647zm-13.347586,-6.130002c-0.197742,0.395484 -0.296613,0.790968 -0.494355,1.186452c-0.494355,-0.197742 -0.98871,-0.395484 -1.483065,-0.494355c0.098871,-0.395484 0.197742,-0.790968 0.296613,-1.186452c0.790968,-3.855969 0.395484,-7.316455 -0.889839,-9.590488c3.065001,0.790968 6.031131,1.779678 8.898391,2.867259c-2.372904,0.98871 -4.745808,3.658227 -6.327744,7.217583zm-19.971943,-28.079366c4.745808,-1.186452 8.206294,-5.339034 8.206294,-10.480327c0,-4.646937 -2.96613,-8.601778 -7.118712,-10.084843l5.339034,-4.646937c10.381456,17.599039 11.76565,32.627432 11.864521,38.856306l-18.291136,-13.644199zm-2.570646,-21.65275l-7.316455,-6.327744c2.076291,-3.262743 4.548066,-6.723228 7.316455,-10.084843c2.768388,3.460485 5.240163,6.822099 7.316455,10.084843l-7.316455,6.327744zm-8.997262,-3.559356l5.339034,4.646937c-4.152582,1.483065 -7.118712,5.437905 -7.118712,10.084843c0,5.042421 3.559356,9.293875 8.206294,10.480327l-18.390007,13.644199c0.098871,-6.130002 1.483065,-21.158395 11.963392,-38.856306zm-10.974682,43.107759c-1.285323,2.274033 -1.680807,5.734518 -0.889839,9.590488c0.098871,0.395484 0.197742,0.790968 0.296613,1.186452c-0.494355,0.197742 -0.98871,0.296613 -1.483065,0.494355c-0.098871,-0.395484 -0.296613,-0.790968 -0.494355,-1.186452c-1.581936,-3.559356 -3.95484,-6.130002 -6.327744,-7.217583c2.867259,-1.087581 5.833389,-2.076291 8.898391,-2.867259zm-14.138554,-14.830651c-0.790968,4.152582 -1.087581,7.711939 -1.285323,10.579198c-2.372904,0.593226 -4.646937,1.384194 -6.723228,2.274033l0,0c-2.570646,-1.779678 -5.93226,-3.855969 -10.183714,-6.031131c5.141292,-3.658227 11.370166,-6.031131 18.192265,-6.822099zm-1.285323,13.940812c0,1.285323 0.098871,2.274033 0.098871,2.96613c-0.296613,0.197742 -0.692097,0.296613 -0.98871,0.494355c-0.593226,-0.593226 -1.483065,-1.285323 -2.669517,-2.274033c1.087581,-0.395484 2.274033,-0.790968 3.559356,-1.186452zm-0.098871,6.822099c-0.790968,2.471775 -0.395484,5.93226 1.186452,9.491617c0.197742,0.395484 0.395484,0.790968 0.593226,1.087581c-0.494355,0.296613 -0.889839,0.494355 -1.384194,0.790968c-0.197742,-0.395484 -0.494355,-0.692097 -0.692097,-0.98871c-2.274033,-3.163872 -5.141292,-5.240163 -7.613068,-5.734518c2.471775,-1.779678 5.141292,-3.262743 7.909681,-4.646937zm-36.878886,9.887101c2.076291,-4.350324 0.889839,-9.78823 -3.065001,-12.952102l0,0c-3.658227,-2.867259 -8.601778,-3.065001 -12.358876,-0.790968l-0.296613,-7.118712c20.268556,2.867259 32.924045,11.172424 37.768725,14.929522l-22.048235,5.93226zm-18.983233,-21.257266l0.395484,9.689359l-9.491617,1.779678c-1.285323,-3.658227 -2.372904,-7.711939 -3.361614,-11.963392c4.449195,-0.197742 8.601778,0.098871 12.457747,0.494355zm-0.889839,13.248715c-0.494355,1.483065 -0.692097,3.065001 -0.494355,4.646937c0.296613,2.867259 1.779678,5.437905 3.95484,7.217583c1.878549,1.581936 4.251453,2.372904 6.723228,2.372904c0.395484,0 0.790968,0 1.186452,-0.098871c1.97742,-0.197742 3.855969,-0.98871 5.437905,-2.175162l-0.790968,22.839203c-4.745808,-3.95484 -15.72049,-14.336296 -23.036945,-33.517271l7.019841,-1.285323zm15.819361,47.853567c0.296613,0.593226 0.790968,1.186452 1.384194,1.779678c1.581936,1.581936 3.855969,2.96613 6.525486,3.757098c0.395484,0.098871 0.790968,0.197742 1.186452,0.296613c-0.098871,0.494355 -0.197742,0.98871 -0.296613,1.581936c-0.395484,-0.098871 -0.790968,-0.098871 -1.186452,-0.197742c-3.95484,-0.395484 -7.316455,0.296613 -9.491617,1.878549c0.395484,-3.065001 1.087581,-6.130002 1.878549,-9.096133zm-16.313716,39.647274c-2.175162,-4.350324 -7.118712,-6.822099 -12.062263,-5.734518l0,0c-4.548066,0.98871 -7.711939,4.844679 -8.305165,9.195004l-5.734518,-4.152582c14.830651,-14.039683 29.265818,-18.785491 35.296949,-20.169685l-9.195004,20.861782zm-28.375979,1.581936l7.81081,5.734518l-4.548066,8.502907c-3.658227,-1.285323 -7.514197,-2.867259 -11.469037,-4.844679c2.669517,-3.559356 5.437905,-6.624357 8.206294,-9.392746zm9.689359,8.997262c0.889839,1.285323 1.97742,2.471775 3.262743,3.262743c1.779678,1.087581 3.658227,1.680807 5.734518,1.680807c0.790968,0 1.581936,-0.098871 2.372904,-0.296613c2.768388,-0.593226 5.141292,-2.372904 6.723228,-4.745808c1.087581,-1.680807 1.581936,-3.658227 1.680807,-5.635647l17.401297,14.830651c-6.031131,1.285323 -20.960653,3.361614 -40.537113,-2.867259l3.361614,-6.228873zm46.469373,13.644199c2.274033,0 4.94355,-0.790968 7.613068,-2.274033c0.395484,-0.197742 0.692097,-0.395484 1.087581,-0.692097c0.296613,0.395484 0.593226,0.889839 0.889839,1.285323c-0.296613,0.296613 -0.692097,0.494355 -0.98871,0.790968c-2.867259,2.669517 -4.646937,5.635647 -4.94355,8.206294c-1.97742,-2.372904 -3.757098,-4.94355 -5.437905,-7.514197c0.593226,0.197742 1.186452,0.197742 1.779678,0.197742zm17.302426,8.79952c0.296613,-0.296613 0.593226,-0.593226 0.889839,-0.889839c0.395484,0.395484 0.790968,0.692097 1.186452,1.087581c-0.296613,0.296613 -0.494355,0.692097 -0.790968,0.98871c-2.274033,3.163872 -3.361614,6.426615 -3.065001,8.997262c-2.372904,-1.97742 -4.745808,-3.95484 -6.92097,-6.228873c2.570646,0 5.833389,-1.384194 8.700649,-3.95484zm-2.768388,53.093731l3.855969,8.898391c-3.361614,2.076291 -6.92097,4.053711 -10.974682,5.93226c-0.98871,-4.251453 -1.779678,-8.404036 -2.175162,-12.260005l9.293875,-2.570646zm6.624357,7.118712l-2.768388,-6.525486c0.395484,0 0.692097,0.098871 1.087581,0.098871c4.053711,0 7.909681,-2.274033 9.689359,-6.130002c1.285323,-2.570646 1.384194,-5.536776 0.494355,-8.206294c-0.692097,-1.878549 -1.779678,-3.559356 -3.361614,-4.745808l22.443719,-4.350324c-2.867259,5.536776 -10.579198,18.488878 -27.585011,29.859044zm30.847754,-33.715013c0.593226,-0.395484 1.087581,-0.889839 1.581936,-1.581936c1.384194,-1.779678 2.471775,-4.152582 3.065001,-6.822099c0.098871,-0.395484 0.197742,-0.790968 0.197742,-1.186452c0.494355,0.098871 1.087581,0.098871 1.581936,0.197742c0,0.395484 0,0.790968 0,1.186452c0,3.95484 1.087581,7.217583 2.867259,9.195004c-3.065001,-0.098871 -6.228873,-0.494355 -9.293875,-0.98871zm14.929522,7.613068c-1.285323,-0.098871 -2.471775,-0.296613 -3.757098,-0.494355c0.593226,-1.186452 0.889839,-2.076291 1.186452,-2.768388c0.197742,0 0.395484,0 0.593226,0c0.197742,0 0.395484,0 0.593226,0c0.296613,0.790968 0.692097,1.878549 1.384194,3.262743zm4.449195,-17.005813c0.494355,0 1.087581,-0.098871 1.581936,-0.197742c0.098871,0.395484 0.098871,0.790968 0.197742,1.186452c0.790968,3.855969 2.570646,6.92097 4.646937,8.404036c-3.065001,0.494355 -6.130002,0.790968 -9.293875,0.98871c1.779678,-1.878549 2.867259,-5.240163 2.867259,-9.195004c0,-0.395484 0,-0.790968 0,-1.186452zm32.330819,17.500168c-3.757098,3.065001 -5.042421,8.404036 -2.867259,12.952102c1.285323,2.570646 3.460485,4.548066 6.130002,5.437905c1.186452,0.395484 2.372904,0.593226 3.559356,0.593226c0.395484,0 0.692097,0 1.087581,-0.098871l-2.768388,6.525486c-17.005813,-11.370166 -24.816623,-24.322268 -27.48614,-29.859044l22.344848,4.449195zm11.666779,18.488878l9.293875,2.570646c-0.494355,3.855969 -1.186452,8.008552 -2.175162,12.260005c-3.95484,-1.878549 -7.613068,-3.855969 -10.974682,-5.93226l3.855969,-8.898391zm9.689359,-0.692097l-6.822099,-1.878549c1.087581,-1.087581 1.97742,-2.471775 2.471775,-3.95484c0.98871,-2.669517 0.790968,-5.635647 -0.494355,-8.206294c-1.285323,-2.570646 -3.460485,-4.548066 -6.130002,-5.437905c-1.878549,-0.692097 -3.855969,-0.790968 -5.833389,-0.395484l10.579198,-20.268556c2.669517,5.536776 7.909681,19.67533 6.228873,40.141629zm-10.678069,-42.21792c0.296613,-2.570646 -0.790968,-5.833389 -3.065001,-8.997262c-0.197742,-0.296613 -0.494355,-0.692097 -0.790968,-0.98871c0.395484,-0.395484 0.790968,-0.692097 1.186452,-1.087581c0.296613,0.296613 0.593226,0.593226 0.889839,0.889839c2.867259,2.570646 6.130002,4.053711 8.700649,4.053711c-2.175162,2.175162 -4.449195,4.251453 -6.92097,6.130002zm16.115974,-7.316455c-0.593226,-1.186452 -1.087581,-2.076291 -1.384194,-2.669517c0.197742,-0.296613 0.395484,-0.593226 0.692097,-0.790968c0.790968,0.197742 1.97742,0.593226 3.460485,0.889839c-0.889839,0.889839 -1.779678,1.779678 -2.768388,2.570646zm-4.350324,-4.251453c-0.098871,-0.692097 -0.197742,-1.384194 -0.494355,-2.175162c-0.790968,-2.076291 -2.372904,-4.251453 -4.350324,-6.130002c-0.296613,-0.296613 -0.593226,-0.494355 -0.98871,-0.790968c0.296613,-0.395484 0.593226,-0.889839 0.889839,-1.285323c0.395484,0.197742 0.692097,0.494355 1.087581,0.692097c2.669517,1.581936 5.339034,2.274033 7.613068,2.274033c0.593226,0 1.186452,-0.098871 1.680807,-0.197742c-1.680807,2.669517 -3.460485,5.240163 -5.437905,7.613068zm30.45227,-26.794043c0,1.97742 0.593226,3.855969 1.680807,5.635647c1.483065,2.471775 3.95484,4.152582 6.723228,4.745808c0.790968,0.197742 1.581936,0.296613 2.372904,0.296613c1.97742,0 3.95484,-0.593226 5.734518,-1.680807c1.384194,-0.889839 2.471775,-1.97742 3.262743,-3.262743l3.361614,6.228873c-19.477588,6.228873 -34.505981,4.251453 -40.537113,2.867259l17.401297,-14.830651zm26.299688,10.875811l-4.548066,-8.502907l7.81081,-5.734518c2.768388,2.768388 5.536776,5.833389 8.206294,9.392746c-3.95484,1.97742 -7.81081,3.559356 -11.469037,4.844679zm-4.94355,-12.358876c-0.593226,-4.350324 -3.757098,-8.107423 -8.305165,-9.195004c-4.94355,-1.087581 -9.887101,1.384194 -12.062263,5.734518l-9.195004,-20.960653c6.031131,1.483065 20.367427,6.130002 35.296949,20.169685l-5.734518,4.251453zm-32.726303,-40.833726c0.692097,-0.494355 1.581936,-1.186452 2.867259,-2.076291c0.197742,1.186452 0.296613,2.471775 0.395484,3.757098c-1.285323,-0.296613 -2.274033,-0.494355 -2.96613,-0.593226c-0.098871,-0.395484 -0.197742,-0.790968 -0.296613,-1.087581zm6.525486,2.471775c-0.098871,-2.372904 -0.296613,-4.745808 -0.790968,-7.019841c2.372904,-2.076291 5.141292,-4.94355 8.107423,-8.502907c2.471775,5.734518 3.361614,12.260005 2.669517,19.180975c-3.855969,-1.779678 -7.316455,-2.96613 -9.985972,-3.658227zm17.203555,-29.562431c1.186452,-1.97742 2.372904,-4.053711 3.559356,-6.327744c0,0 0,0 0.098871,0c2.175162,1.285323 27.387269,17.005813 11.76565,52.599376c-2.570646,-1.97742 -5.141292,-3.658227 -7.613068,-5.240163c4.350324,-15.621619 1.483065,-30.551141 -7.81081,-41.031468zm14.929522,-48.842277c-9.887101,47.260341 -32.924045,67.528898 -39.449532,72.472448c-0.790968,-2.768388 -1.680807,-5.437905 -2.669517,-8.008552c4.844679,-3.460485 23.827913,-19.180975 30.650012,-53.686957l0.395484,-1.878549l-1.97742,-0.098871c-35.198078,-0.98871 -54.774538,14.039683 -59.223733,17.994523c-2.274033,-1.581936 -4.646937,-3.065001 -7.118712,-4.449195c6.130002,-5.339034 30.946625,-23.234687 79.393418,-22.344848zm-118.941821,-57.246313c30.748883,37.175499 32.330819,67.825511 32.034206,76.031804c-2.570646,-1.087581 -5.240163,-2.076291 -7.909681,-2.867259c0.296613,-5.93226 -0.197742,-30.551141 -22.839203,-57.444055l-1.285323,-1.483065l-1.285323,1.483065c-22.740332,26.892914 -23.135816,51.412924 -22.938074,57.444055c-2.669517,0.790968 -5.339034,1.779678 -7.909681,2.867259c-0.197742,-8.305165 1.285323,-38.856306 32.133077,-76.031804zm-39.449532,79.591161c-2.471775,1.384194 -4.844679,2.867259 -7.217583,4.449195c-4.449195,-3.855969 -23.926784,-18.983233 -59.223733,-17.895652l-1.97742,0.098871l0.395484,1.878549c6.822099,34.604852 25.805333,50.226471 30.650012,53.686957c-0.98871,2.570646 -1.97742,5.240163 -2.669517,8.008552c-6.624357,-4.94355 -29.562431,-25.113236 -39.449532,-72.472448c48.347922,-0.98871 73.164545,16.906942 79.49229,22.245977zm-41.822436,58.136152c-0.494355,2.768388 -0.790968,5.536776 -0.98871,8.404036c-5.833389,1.087581 -29.760173,6.92097 -50.918569,35.099207l-1.186452,1.581936l1.680807,0.889839c17.796781,9.195004 33.319529,11.567908 44.393082,11.567908c8.404036,0 14.237425,-1.285323 16.7092,-1.97742c1.384194,2.471775 2.96613,4.844679 4.548066,7.118712c-7.909681,2.076291 -38.065338,7.514197 -81.370839,-14.336296c29.562431,-38.460822 59.124862,-46.765986 67.133414,-48.347922zm19.378717,68.814221c1.878549,2.076291 3.855969,4.152582 5.93226,6.031131c-2.768388,5.141292 -13.149844,27.585011 -4.350324,61.695508l0.494355,1.878549l1.779678,-0.790968c32.133077,-14.336296 43.20663,-36.28566 45.579534,-41.822436c2.768388,0.395484 5.536776,0.692097 8.404036,0.790968c-3.361614,7.514197 -17.895652,34.40711 -61.89325,54.576796c-11.666779,-46.765986 0.296613,-75.043094 4.053711,-82.359549zm127.840212,82.557291c-43.799856,-20.169685 -58.531636,-47.062599 -61.89325,-54.576796c2.867259,-0.098871 5.635647,-0.395484 8.404036,-0.889839c2.372904,5.536776 13.446457,27.48614 45.579534,41.822436l1.779678,0.790968l0.494355,-1.878549c8.79952,-34.209368 -1.483065,-56.554216 -4.350324,-61.695508c2.076291,-1.878549 4.053711,-3.95484 5.833389,-6.031131c3.855969,7.217583 15.819361,35.494691 4.152582,82.45842zm0.98871,-88.885035c1.680807,-2.274033 3.163872,-4.646937 4.548066,-7.118712c2.471775,0.692097 8.305165,1.97742 16.7092,1.97742c11.073553,0 26.596301,-2.372904 44.393082,-11.567908l1.680807,-0.889839l-1.186452,-1.581936c-21.158395,-28.178237 -45.085179,-34.011626 -50.918569,-35.099207c-0.197742,-2.867259 -0.593226,-5.635647 -0.98871,-8.404036c8.107423,1.581936 37.570983,9.78823 67.034543,48.15018c-43.107759,21.949364 -73.362287,16.610329 -81.271968,14.534038z" id="svg_33" fill="#70146a"/>
  </g>
 </g>
</svg>